<svg width="100" height="100%" viewBox="0 0 196 66" fill="none" xmlns="http://www.w3.org/2000/svg">
<path d="M44.8667 64.3238C44.8667 64.5924 44.273 64.665 43.71 64.665C43.0958 64.665 42.7994 64.5414 42.7174 64.1684C42.5029 64.4681 42.0929 64.7064 41.4172 64.7064C40.3214 64.7064 39.4824 64.1995 39.4824 63.1331C39.4824 62.0881 40.3521 61.5501 41.325 61.5501C41.7555 61.5501 42.1032 61.6537 42.3594 61.8084V61.7773C42.2371 60.5562 42.1654 60.0278 41.6325 60.0278C40.926 60.0278 41.2123 61.4147 40.3016 61.4147C39.8719 61.4147 39.5856 61.1453 39.5856 60.742C39.5856 59.8931 40.5886 59.5312 41.6325 59.5312C43.0036 59.5312 43.956 60.3386 44.12 61.6219L44.3455 63.4742C44.4377 64.2091 44.8674 64.033 44.8674 64.3231L44.8667 64.3238ZM42.5124 63.4335L42.4714 62.9577C42.3997 62.3368 42.1339 62.0985 41.8367 62.0985C41.53 62.0985 41.3148 62.3775 41.3148 62.8023C41.3148 63.5371 41.5607 64.1788 41.9802 64.1788C42.3177 64.1788 42.5124 63.7851 42.5124 63.4335Z" fill="#004538"/>
<path d="M47.0481 62.1096C47.0481 60.4948 48.256 59.5431 49.6491 59.5327C50.8467 59.5224 51.8291 60.1433 51.8291 61.0646C51.8291 61.3747 51.6351 61.6855 51.0817 61.6648C50.0378 61.6026 50.13 60.0293 49.3716 60.0397C48.9419 60.05 48.6557 60.5673 48.6557 61.1986C48.6557 62.544 49.3109 63.4343 50.324 63.4343C50.8972 63.4343 51.245 63.1234 51.4602 62.8341C51.5934 62.6683 51.8489 62.7201 51.8489 62.9481C51.8182 63.8487 51.1125 64.7071 49.7091 64.7071C48.1023 64.7071 47.0481 63.4653 47.0481 62.1096Z" fill="#004538"/>
<path d="M56.7024 60.5569C56.7024 61.0742 56.5076 61.5293 55.9139 61.5293C54.9828 61.5293 55.4022 60.5569 54.8905 60.5569C54.5626 60.5569 54.5113 61.0949 54.5113 61.55V63.4749C54.5113 63.9507 55.0538 64.0751 55.0538 64.3652V64.4066C55.0538 64.5309 54.952 64.6035 54.8085 64.6035H52.6073C52.4638 64.6035 52.3613 64.5309 52.3613 64.4066V64.3652C52.3613 64.0758 52.7705 63.9515 52.7705 63.4749V61.4153C52.7705 60.9291 52.2793 60.8877 52.2793 60.5872V60.5561C52.2793 60.4318 52.3613 60.3386 52.515 60.2557L53.9586 59.5726C54.2244 59.4483 54.3268 59.5933 54.3268 59.8005V60.5561C54.5523 59.8938 55.0333 59.5319 55.7397 59.5319C56.3437 59.5319 56.7016 59.9767 56.7016 60.5561L56.7024 60.5569Z" fill="#004538"/>
<path d="M62.2822 64.3238C62.2822 64.5924 61.6885 64.665 61.1256 64.665C60.5106 64.665 60.2142 64.5414 60.1322 64.1684C59.9177 64.4681 59.5077 64.7064 58.832 64.7064C57.7361 64.7064 56.8979 64.1995 56.8979 63.1331C56.8979 62.0881 57.7676 61.5501 58.7405 61.5501C59.1702 61.5501 59.5187 61.6537 59.7749 61.8084V61.7773C59.6519 60.5562 59.5802 60.0278 59.048 60.0278C58.3416 60.0278 58.6285 61.4147 57.7179 61.4147C57.2874 61.4147 57.0012 61.1453 57.0012 60.742C57.0012 59.8931 58.0041 59.5312 59.048 59.5312C60.4199 59.5312 61.3715 60.3386 61.5362 61.6219L61.7617 63.4742C61.8532 64.2091 62.2837 64.033 62.2837 64.3231L62.2822 64.3238ZM59.9279 63.4335L59.8869 62.9577C59.8152 62.3368 59.5494 62.0985 59.2522 62.0985C58.9448 62.0985 58.7303 62.3775 58.7303 62.8023C58.7303 63.5371 58.9755 64.1788 59.3957 64.1788C59.7332 64.1788 59.9279 63.7851 59.9279 63.4335Z" fill="#004538"/>
<path d="M64.9044 59.6363H66.0611C66.1936 59.6363 66.2961 59.7399 66.2961 59.8746V60.1025C66.2961 60.2372 66.1936 60.3408 66.0611 60.3408H64.9447V63.466C64.9447 63.9522 65.4981 64.0766 65.4981 64.3667V64.4081C65.4981 64.5324 65.4052 64.605 65.2624 64.605H63.0099C62.8664 64.605 62.7749 64.5324 62.7749 64.4081V64.3667C62.7749 64.0773 63.1841 63.953 63.1841 63.466V60.3408H62.5187C62.3854 60.3408 62.2837 60.2372 62.2837 60.1025V59.8746C62.2837 59.7399 62.3854 59.6363 62.5187 59.6363H63.1841V59.119C63.1841 57.9704 63.8195 57.0387 65.3034 57.0387C66.2148 57.0387 66.941 57.6492 66.941 58.353C66.941 58.632 66.7265 58.9739 66.2756 58.9739C65.0677 58.9739 65.6614 57.5353 64.9242 57.5353C64.1665 57.5353 64.6277 59.1397 64.9044 59.6363Z" fill="#004538"/>
<path d="M67.0334 62.7919V60.3394H66.6447C66.5114 60.3394 66.4097 60.2358 66.4097 60.1011V59.8732C66.4097 59.7281 66.5012 59.6349 66.6447 59.6349H66.8387C67.4631 59.6349 67.955 59.2212 68.0883 58.5892C68.119 58.4234 68.2318 58.3206 68.3643 58.3206H68.5992C68.7632 58.3206 68.876 58.4242 68.876 58.5892V59.6349H69.9308C70.0633 59.6349 70.1658 59.7385 70.1658 59.8732V60.1011C70.1658 60.2358 70.0633 60.3394 69.9308 60.3394H68.876V62.823C68.876 63.1753 69.0809 63.3818 69.3364 63.3818C69.7361 63.3818 69.8994 63.1849 70.0121 62.9992C70.1556 62.8127 70.4008 62.8748 70.4008 63.0717C70.4008 63.8687 69.8181 64.7064 68.7017 64.7064C67.6886 64.7064 67.0334 64.0441 67.0334 62.7919Z" fill="#004538"/>
<path d="M78.3053 64.3653V64.4067C78.3053 64.531 78.2123 64.6036 78.0695 64.6036H76.6054C76.4415 64.6036 76.339 64.5 76.339 64.3445V64.2513C76.0322 64.5414 75.5915 64.7064 75.0908 64.7064C73.8522 64.7064 72.6743 63.8162 72.6743 62.1192C72.6743 60.577 73.8112 59.532 75.1011 59.532C75.5308 59.532 75.8792 59.6356 76.1552 59.8214V58.4449C76.1552 57.9587 75.6135 57.8965 75.6135 57.596V57.5649C75.6135 57.451 75.705 57.337 75.8485 57.2956L77.4458 56.8094C77.7423 56.7161 77.8961 56.7783 77.8961 57.0573V63.4735C77.8961 63.9494 78.3053 64.0737 78.3053 64.3638V64.3653ZM76.1552 63.3307V61.3333C76.1552 60.6709 75.705 60.0397 75.2343 60.0397C74.7321 60.0397 74.4569 60.4844 74.4254 61.3126C74.3946 62.1821 74.7321 64.1684 75.5008 64.2002C75.8485 64.2106 76.1552 63.8894 76.1552 63.3307Z" fill="#004538"/>
<path d="M83.1377 60.5569C83.1377 61.0742 82.9437 61.5293 82.35 61.5293C81.4181 61.5293 81.8375 60.5569 81.3258 60.5569C80.9986 60.5569 80.9466 61.0949 80.9466 61.55V63.4749C80.9466 63.9507 81.4898 64.0751 81.4898 64.3652V64.4066C81.4898 64.5309 81.3866 64.6035 81.2438 64.6035H79.0433C78.8998 64.6035 78.7973 64.5309 78.7973 64.4066V64.3652C78.7973 64.0758 79.2065 63.9515 79.2065 63.4749V61.4153C79.2065 60.9291 78.7153 60.8877 78.7153 60.5872V60.5561C78.7153 60.4318 78.7966 60.3386 78.9503 60.2557L80.3939 59.5726C80.6604 59.4483 80.7622 59.5933 80.7622 59.8005V60.5561C80.9876 59.8938 81.4686 59.5319 82.1743 59.5319C82.7782 59.5319 83.1369 59.9767 83.1369 60.5561L83.1377 60.5569Z" fill="#004538"/>
<path d="M83.4243 64.4066V64.3652C83.4243 64.0655 83.8343 63.9412 83.8343 63.4646V61.4982C83.8343 61.0224 83.4243 60.8773 83.4243 60.6287V60.5872C83.4243 60.4733 83.5166 60.4215 83.6593 60.3497L85.2054 59.5837C85.4916 59.4387 85.6666 59.6045 85.6666 59.8013V63.4646C85.6666 63.9404 86.1271 64.0647 86.1271 64.3652V64.4066C86.1271 64.531 86.0246 64.6035 85.8708 64.6035H83.6703C83.5166 64.6035 83.4243 64.531 83.4243 64.4066ZM83.5883 57.9904C83.5883 57.4006 84.0597 56.9551 84.7662 56.9551C85.4616 56.9551 85.9331 57.3998 85.9331 57.9904C85.9331 58.5699 85.4624 59.0257 84.7662 59.0257C84.0597 59.0257 83.5883 58.5706 83.5883 57.9904Z" fill="#004538"/>
<path d="M92.4948 64.3756V64.417C92.4948 64.5414 92.3923 64.6139 92.2488 64.6139H90.202C90.0483 64.6139 89.956 64.5414 89.956 64.417V64.3756C89.956 64.0759 90.3557 63.9515 90.3243 63.475L90.2218 61.6226C90.1713 60.5984 89.9765 60.215 89.5153 60.215C89.0651 60.215 88.8499 60.6184 88.8499 61.2185V63.4742C88.8499 63.9501 89.3001 64.0744 89.3001 64.3749V64.4163C89.3001 64.5406 89.2071 64.6131 89.0541 64.6131H86.8426C86.6896 64.6131 86.5966 64.5406 86.5966 64.4163V64.3749C86.5966 64.0751 87.0468 63.9508 87.0468 63.4742V61.4354C87.0468 60.9388 86.5044 60.8766 86.5044 60.5762V60.5451C86.5044 60.4208 86.6069 60.3586 86.7504 60.2861L88.1837 59.5719C88.4392 59.4372 88.5724 59.6134 88.5724 59.8198V60.3061C88.8492 59.8095 89.3609 59.5298 90.0366 59.5298C90.9275 59.5298 91.8689 60.0367 91.9919 61.6818L92.1251 63.472C92.1558 63.9478 92.4933 64.0722 92.4933 64.3726L92.4948 64.3756Z" fill="#004538"/>
<path d="M98.8839 64.3652V64.4067C98.8839 64.531 98.7909 64.6035 98.6482 64.6035H96.4988C96.3554 64.6035 96.2639 64.5206 96.2639 64.3963V64.3652C96.2639 64.0759 96.6431 63.993 96.4783 63.734L95.5772 62.3782L95.0655 62.854V63.475C95.0655 63.9508 95.5259 64.0648 95.5259 64.3652V64.4067C95.5259 64.531 95.4235 64.6035 95.28 64.6035H93.0684C92.925 64.6035 92.8232 64.531 92.8232 64.4067V64.3652C92.8232 64.0655 93.2324 63.9515 93.2324 63.475V58.7453C93.2324 58.2591 92.7412 58.1244 92.7412 57.8654V57.8239C92.7412 57.71 92.8335 57.6582 92.9667 57.5864L94.6043 56.8204C94.8913 56.6857 95.0655 56.8515 95.0655 57.038V61.9534L96.4476 60.7531C96.7646 60.4837 96.1921 60.1632 96.1921 59.8835V59.842C96.1921 59.7177 96.2836 59.6348 96.4271 59.6348H98.0442C98.1877 59.6348 98.2799 59.7074 98.2799 59.8317V59.8731C98.2799 60.1625 97.7272 60.3593 97.318 60.7427L96.6621 61.3532L98.3099 63.7332C98.4637 63.9612 98.8839 64.0751 98.8839 64.3652Z" fill="#004538"/>
<path d="M98.8232 63.4861C98.8232 63.0206 99.1402 62.8237 99.5502 62.8237C100.574 62.8237 100.226 64.2417 101.075 64.2417C101.383 64.2417 101.628 64.0862 101.628 63.6726C101.628 62.3168 98.9155 63.1138 98.9155 61.1061C98.9155 60.1847 99.7961 59.5327 101.075 59.5327C102.375 59.5327 103.225 60.1018 103.225 60.7745C103.225 61.1364 102.918 61.4058 102.539 61.4058C101.546 61.4058 101.874 60.0086 101.168 60.0086C100.85 60.0086 100.687 60.2979 100.687 60.5984C100.687 62.0163 103.308 61.2711 103.308 63.1752C103.308 64.0344 102.498 64.6968 101.076 64.6968C99.7866 64.6968 98.8232 64.2106 98.8232 63.4861Z" fill="#004538"/>
<path d="M106.246 62.7919V60.3394H105.858C105.724 60.3394 105.623 60.2358 105.623 60.1011V59.8732C105.623 59.7281 105.714 59.6349 105.858 59.6349H106.052C106.676 59.6349 107.168 59.2212 107.301 58.5892C107.332 58.4234 107.445 58.3206 107.577 58.3206H107.812C107.976 58.3206 108.089 58.4242 108.089 58.5892V59.6349H109.144C109.276 59.6349 109.379 59.7385 109.379 59.8732V60.1011C109.379 60.2358 109.276 60.3394 109.144 60.3394H108.089V62.823C108.089 63.1753 108.294 63.3818 108.549 63.3818C108.949 63.3818 109.112 63.1849 109.225 62.9992C109.368 62.8127 109.614 62.8748 109.614 63.0717C109.614 63.8687 109.031 64.7064 107.915 64.7064C106.901 64.7064 106.246 64.0441 106.246 62.7919Z" fill="#004538"/>
<path d="M114.303 60.5569C114.303 61.0742 114.109 61.5293 113.515 61.5293C112.583 61.5293 113.003 60.5569 112.492 60.5569C112.164 60.5569 112.112 61.0949 112.112 61.55V63.4749C112.112 63.9507 112.655 64.0751 112.655 64.3652V64.4066C112.655 64.5309 112.552 64.6035 112.409 64.6035H110.208C110.065 64.6035 109.962 64.5309 109.962 64.4066V64.3652C109.962 64.0758 110.372 63.9515 110.372 63.4749V61.4153C110.372 60.9291 109.88 60.8877 109.88 60.5872V60.5561C109.88 60.4318 109.962 60.3386 110.115 60.2557L111.56 59.5726C111.825 59.4483 111.928 59.5933 111.928 59.8005V60.5561C112.153 59.8938 112.634 59.5319 113.34 59.5319C113.944 59.5319 114.302 59.9767 114.302 60.5561L114.303 60.5569Z" fill="#004538"/>
<path d="M119.883 64.3238C119.883 64.5924 119.289 64.665 118.726 64.665C118.112 64.665 117.815 64.5414 117.734 64.1684C117.519 64.4681 117.109 64.7064 116.434 64.7064C115.338 64.7064 114.5 64.1995 114.5 63.1331C114.5 62.0881 115.37 61.5501 116.342 61.5501C116.772 61.5501 117.12 61.6537 117.376 61.8084V61.7773C117.253 60.5562 117.181 60.0278 116.649 60.0278C115.942 60.0278 116.229 61.4147 115.318 61.4147C114.888 61.4147 114.601 61.1453 114.601 60.742C114.601 59.8931 115.605 59.5312 116.649 59.5312C118.021 59.5312 118.972 60.3386 119.136 61.6219L119.362 63.4742C119.454 64.2091 119.884 64.033 119.884 64.3231L119.883 64.3238ZM117.529 63.4335L117.488 62.9577C117.416 62.3368 117.15 62.0985 116.853 62.0985C116.546 62.0985 116.331 62.3775 116.331 62.8023C116.331 63.5371 116.577 64.1788 116.997 64.1788C117.334 64.1788 117.529 63.7851 117.529 63.4335Z" fill="#004538"/>
<path d="M125.658 64.3653V64.4067C125.658 64.531 125.565 64.6036 125.423 64.6036H123.958C123.794 64.6036 123.692 64.5 123.692 64.3445V64.2513C123.385 64.5414 122.945 64.7064 122.443 64.7064C121.204 64.7064 120.027 63.8162 120.027 62.1192C120.027 60.577 121.164 59.532 122.453 59.532C122.884 59.532 123.232 59.6356 123.508 59.8214V58.4449C123.508 57.9587 122.966 57.8965 122.966 57.596V57.5649C122.966 57.451 123.058 57.337 123.201 57.2956L124.798 56.8094C125.095 56.7161 125.248 56.7783 125.248 57.0573V63.4735C125.248 63.9494 125.658 64.0737 125.658 64.3638V64.3653ZM123.508 63.3307V61.3333C123.508 60.6709 123.058 60.0397 122.587 60.0397C122.085 60.0397 121.809 60.4844 121.778 61.3126C121.747 62.1821 122.085 64.1684 122.853 64.2002C123.201 64.2106 123.508 63.8894 123.508 63.3307Z" fill="#004538"/>
<path d="M126.129 64.4066V64.3652C126.129 64.0655 126.538 63.9412 126.538 63.4646V61.4982C126.538 61.0224 126.129 60.8773 126.129 60.6287V60.5872C126.129 60.4733 126.221 60.4215 126.364 60.3497L127.909 59.5837C128.196 59.4387 128.37 59.6045 128.37 59.8013V63.4646C128.37 63.9404 128.832 64.0647 128.832 64.3652V64.4066C128.832 64.531 128.729 64.6035 128.575 64.6035H126.374C126.221 64.6035 126.129 64.531 126.129 64.4066ZM126.293 57.9904C126.293 57.4006 126.764 56.9551 127.47 56.9551C128.166 56.9551 128.637 57.3998 128.637 57.9904C128.637 58.5699 128.166 59.0257 127.47 59.0257C126.764 59.0257 126.293 58.5706 126.293 57.9904Z" fill="#004538"/>
<path d="M135.199 64.3756V64.417C135.199 64.5414 135.096 64.6139 134.953 64.6139H132.905C132.752 64.6139 132.66 64.5414 132.66 64.417V64.3756C132.66 64.0759 133.059 63.9515 133.028 63.475L132.926 61.6226C132.875 60.5984 132.68 60.215 132.219 60.215C131.769 60.215 131.554 60.6184 131.554 61.2185V63.4742C131.554 63.9501 132.004 64.0744 132.004 64.3749V64.4163C132.004 64.5406 131.912 64.6131 131.759 64.6131H129.547C129.394 64.6131 129.301 64.5406 129.301 64.4163V64.3749C129.301 64.0751 129.752 63.9508 129.752 63.4742V61.4354C129.752 60.9388 129.21 60.8766 129.21 60.5762V60.5451C129.21 60.4208 129.312 60.3586 129.455 60.2861L130.889 59.5719C131.144 59.4372 131.277 59.6134 131.277 59.8198V60.3061C131.553 59.8095 132.066 59.5298 132.741 59.5298C133.632 59.5298 134.574 60.0367 134.697 61.6818L134.831 63.472C134.861 63.9478 135.199 64.0722 135.199 64.3726V64.3756Z" fill="#004538"/>
<path d="M140.82 59.9775C140.779 60.3808 140.38 60.3401 140.052 60.443C140.348 60.7842 140.554 61.2393 140.554 61.7262C140.554 62.5233 140.134 63.1545 139.448 63.5061C140.369 63.7029 140.656 64.0959 140.656 64.6132C140.656 65.4413 139.478 66 137.984 66C136.52 66 135.568 65.5242 135.568 64.6443C135.568 64.3238 135.793 63.9612 136.274 63.9612C137.205 63.9612 137.052 65.4931 137.994 65.5035C138.537 65.5138 138.844 65.1512 138.844 64.6339C138.844 64.1891 138.7 63.8783 138.414 63.7954C138.301 63.8058 138.168 63.8161 138.046 63.8161C136.613 63.8161 135.558 62.9673 135.558 61.7359C135.558 60.4215 136.592 59.5312 138.066 59.5312C138.711 59.5312 139.151 59.6349 140.072 59.6349C140.738 59.6349 140.85 59.7385 140.82 59.976L140.82 59.9775ZM138.302 63.2996C138.651 63.2996 138.855 62.9688 138.855 62.43C138.855 61.5708 138.415 60.0397 137.8 60.0397C137.473 60.0397 137.268 60.3601 137.268 60.9092C137.268 61.9446 137.749 63.2996 138.302 63.2996Z" fill="#004538"/>
<path d="M143.206 62.1096C143.206 60.4948 144.414 59.5431 145.807 59.5327C147.004 59.5224 147.987 60.1433 147.987 61.0646C147.987 61.3747 147.793 61.6855 147.239 61.6648C146.195 61.6026 146.288 60.0293 145.53 60.0397C145.1 60.05 144.813 60.5673 144.813 61.1986C144.813 62.544 145.468 63.4343 146.481 63.4343C147.055 63.4343 147.403 63.1234 147.618 62.8341C147.752 62.6683 148.007 62.7201 148.007 62.9481C147.976 63.8487 147.27 64.7071 145.867 64.7071C144.26 64.7071 143.206 63.4653 143.206 62.1096Z" fill="#004538"/>
<path d="M148.428 62.1096C148.428 60.5777 149.728 59.5327 151.192 59.5327C152.728 59.5327 153.997 60.6087 153.997 62.1303C153.997 63.6415 152.758 64.7071 151.263 64.7071C149.697 64.7071 148.427 63.6104 148.427 62.1096H148.428ZM152.134 62.9273C152.134 62.1199 151.714 60.0396 150.905 60.0396C150.414 60.0396 150.24 60.4948 150.24 61.3333C150.24 62.1717 150.649 64.1995 151.478 64.1995C151.959 64.1995 152.133 63.7029 152.133 62.9266L152.134 62.9273Z" fill="#004538"/>
<path d="M154.5 63.7235C154.5 63.0508 154.991 62.7511 155.584 62.7511C156.167 62.7511 156.659 63.0508 156.659 63.7235C156.659 64.3962 156.168 64.7063 155.584 64.7063C154.991 64.7063 154.5 64.3962 154.5 63.7235Z" fill="#004538"/>
<path d="M10.8202 10.9832L14.9709 27.7816L11.2023 28.7333L7.05157 11.9349C6.98422 11.6611 6.7097 11.4946 6.43884 11.5626L0.383292 13.0916C0.112432 13.1597 -0.05228 13.4372 0.015069 13.711L10.3407 55.5016C10.408 55.7754 10.6826 55.9419 10.9534 55.8739L17.0082 54.3449C17.2791 54.2768 17.4438 53.9993 17.3765 53.7255L13.001 36.0168L16.7703 35.0651L21.1451 52.7738C21.2124 53.0476 21.4869 53.2141 21.7578 53.146L27.8126 51.6171C28.0835 51.549 28.2482 51.2715 28.1808 50.9977L17.8567 9.20633C17.7893 8.93251 17.5148 8.766 17.244 8.83408L11.1884 10.363C10.9175 10.4311 10.7528 10.7094 10.8202 10.9832Z" fill="#004538"/>
<path d="M28.1721 7.05723L29.399 50.601C29.4078 50.9133 29.6896 51.145 29.9941 51.0894L35.9648 50.0008C36.2144 49.9557 36.3916 49.7307 36.3798 49.4747L35.9984 41.0581L41.0826 40.1315L43.633 48.1529C43.7106 48.3964 43.9544 48.5452 44.204 48.4993L50.1747 47.4107C50.4792 47.3552 50.6629 47.0392 50.5634 46.7431L36.6705 5.5083C36.5899 5.26927 36.3484 5.12496 36.1024 5.1701L28.5879 6.53993C28.3419 6.58508 28.1655 6.80487 28.1721 7.05723ZM37.1917 33.0337C36.3674 33.1839 35.6017 32.566 35.5636 31.7201L35.1771 23.1481C35.1639 22.8536 35.576 22.7781 35.6654 23.0593L38.2641 31.2287C38.5204 32.0346 38.016 32.8835 37.1917 33.0337Z" fill="#004538"/>
<path d="M56.0734 24.0968L50.8092 3.41022C50.7463 3.1623 50.5113 2.99949 50.2595 3.02983L44.2354 3.75804C43.9279 3.79504 43.7259 4.09994 43.8079 4.40188L55.3106 46.3945C55.3773 46.638 55.61 46.7956 55.8575 46.7653L62.0587 46.0164C62.3069 45.9868 62.4957 45.7781 62.5038 45.5257L63.8947 1.97452C63.9049 1.66148 63.637 1.41356 63.3296 1.45057L57.3055 2.17878C57.0537 2.20912 56.8633 2.42299 56.8597 2.67905L56.5646 24.0369C56.5603 24.3322 56.1452 24.3825 56.072 24.0961L56.0734 24.0968Z" fill="#004538"/>
<path d="M77.0624 37.2076L76.4028 26.3807L81.6882 26.0513C81.9671 26.0343 82.1787 25.7916 82.1618 25.5096L81.7424 18.6264C81.7255 18.3445 81.4854 18.1306 81.2065 18.1476L75.9204 18.4769L75.293 8.17691L82.8368 7.70698C83.1157 7.68996 83.3273 7.44722 83.3104 7.16526L82.9151 0.691309C82.8983 0.40935 82.6582 0.195476 82.3793 0.212497L68.102 1.1013C67.8231 1.11832 67.6115 1.36105 67.6284 1.64301L70.2477 44.6406C70.2645 44.9226 70.5046 45.1365 70.7835 45.1195L85.0622 44.2299C85.3412 44.2129 85.5527 43.9702 85.5359 43.6882L85.1413 37.215C85.1245 36.933 84.8844 36.7192 84.6054 36.7362L77.0616 37.2061L77.0624 37.2076Z" fill="#004538"/>
<path d="M101.806 0.42271L94.3725 43.336C94.319 43.6438 94.5496 43.928 94.8586 43.9347L100.924 44.079C101.177 44.0849 101.396 43.9006 101.435 43.6475L102.73 35.3235L107.896 35.4456L108.804 43.8222C108.832 44.0768 109.041 44.2714 109.295 44.2773L115.36 44.4209C115.669 44.4283 115.912 44.156 115.873 43.8459L110.44 0.627704C110.409 0.376827 110.201 0.187375 109.951 0.181454L102.316 0.000142C102.066 -0.0057784 101.85 0.174054 101.806 0.42271H101.806ZM105.492 27.7024C104.654 27.6824 104.026 26.9217 104.156 26.0854L105.478 17.6081C105.523 17.3166 105.942 17.3262 105.973 17.62L106.9 26.1505C106.992 26.992 106.328 27.7224 105.492 27.7024Z" fill="#004538"/>
<path d="M136.925 9.68658L145.014 10.5798C145.291 10.6102 145.541 10.4081 145.571 10.1276L146.268 3.68033C146.298 3.39985 146.098 3.1475 145.821 3.11716L131.024 1.48239C130.747 1.45204 130.497 1.65408 130.467 1.93456L125.838 44.7546C125.808 45.035 126.008 45.2874 126.286 45.3178L132.491 46.003C132.768 46.0334 133.018 45.8313 133.048 45.5509L135.009 27.4056L140.272 27.9873C140.55 28.0176 140.799 27.8156 140.829 27.5351L141.526 21.0885C141.556 20.808 141.357 20.5557 141.079 20.5246L135.815 19.9429L136.924 9.68584L136.925 9.68658Z" fill="#004538"/>
<path d="M158.471 30.7099L159.571 23.9044C159.615 23.6262 159.429 23.3635 159.153 23.3176L153.929 22.4547L155.574 12.2731L163.032 13.5045C163.307 13.5497 163.567 13.361 163.612 13.0827L164.646 6.68274C164.691 6.40449 164.504 6.14177 164.229 6.09589L150.113 3.76473C149.838 3.71959 149.578 3.9083 149.533 4.18656L142.662 46.6935C142.616 46.9718 142.804 47.2345 143.079 47.2804L157.194 49.6115C157.47 49.6567 157.729 49.468 157.775 49.1897L158.81 42.7898C158.855 42.5115 158.668 42.2488 158.393 42.2029L150.935 40.9707L152.665 30.2681L157.89 31.1318C158.166 31.1777 158.426 30.9882 158.471 30.7099Z" fill="#004538"/>
<path d="M189.4 12.2183L182.91 30.4413C182.809 30.724 182.392 30.6256 182.426 30.3266L184.601 11.0602C184.63 10.8034 184.465 10.5651 184.216 10.5051L179.834 9.45203C179.585 9.39208 179.331 9.52973 179.243 9.77247L172.605 27.9651C172.503 28.2471 172.086 28.1449 172.122 27.8467L174.443 8.62243C174.474 8.36415 174.308 8.12364 174.058 8.06369L168.437 6.71162C168.139 6.63984 167.848 6.85001 167.817 7.15787L163.541 50.4093C163.516 50.6639 163.681 50.8978 163.927 50.957L168.648 52.0922C168.892 52.1507 169.143 52.0189 169.235 51.7829L176.02 34.4206C176.126 34.149 176.528 34.2452 176.501 34.5368L174.827 53.1283C174.804 53.3814 174.969 53.613 175.214 53.6715L179.934 54.8067C180.18 54.8659 180.432 54.732 180.523 54.4929L195.966 13.9271C196.076 13.6385 195.909 13.318 195.611 13.2463L189.991 11.8949C189.741 11.835 189.486 11.9741 189.398 12.2191L189.4 12.2183Z" fill="#004538"/>
</svg>
