<?xml version="1.0" encoding="UTF-8"?>
<svg id="a" data-name="Layer 1" xmlns="http://www.w3.org/2000/svg" viewBox="0 0 602 201">
  <path d="m137.8,195.9c0,.82-1.82,1.04-3.55,1.04-1.89,0-2.8-.38-3.05-1.51-.66.91-1.92,1.64-3.99,1.64-3.37,0-5.94-1.54-5.94-4.79s2.67-4.82,5.66-4.82c1.32,0,2.39.32,3.18.79v-.1c-.38-3.72-.6-5.33-2.23-5.33-2.17,0-1.29,4.22-4.09,4.22-1.32,0-2.2-.82-2.2-2.05,0-2.59,3.08-3.69,6.29-3.69,4.21,0,7.14,2.46,7.64,6.37l.69,5.64c.28,2.24,1.6,1.7,1.6,2.59h0Zm-7.23-2.71l-.13-1.45c-.22-1.89-1.04-2.62-1.95-2.62s-1.6.85-1.6,2.14c0,2.24.76,4.19,2.04,4.19,1.04,0,1.63-1.2,1.63-2.27Z" fill="#fff6e1"/>
  <path d="m144.51,189.15c0-4.92,3.71-7.82,7.99-7.85,3.68-.03,6.7,1.86,6.7,4.66,0,.95-.6,1.89-2.29,1.83-3.21-.19-2.92-4.98-5.25-4.95-1.32.03-2.2,1.61-2.2,3.53,0,4.1,2.01,6.81,5.12,6.81,1.76,0,2.83-.95,3.49-1.83.41-.51,1.19-.35,1.19.35-.09,2.74-2.26,5.36-6.57,5.36-4.94,0-8.17-3.78-8.17-7.91Z" fill="#fff6e1"/>
  <path d="m174.16,184.42c0,1.58-.6,2.96-2.42,2.96-2.86,0-1.57-2.96-3.14-2.96-1.01,0-1.16,1.64-1.16,3.02v5.86c0,1.45,1.67,1.83,1.67,2.71v.13c0,.38-.31.6-.75.6h-6.76c-.44,0-.75-.22-.75-.6v-.13c0-.88,1.26-1.26,1.26-2.71v-6.27c0-1.48-1.51-1.61-1.51-2.52v-.1c0-.38.25-.66.72-.92l4.43-2.08c.82-.38,1.13.06,1.13.69v2.3c.69-2.02,2.17-3.12,4.34-3.12,1.85,0,2.96,1.35,2.96,3.12h0Z" fill="#fff6e1"/>
  <path d="m191.29,195.9c0,.82-1.82,1.04-3.55,1.04-1.89,0-2.8-.38-3.05-1.51-.66.91-1.92,1.64-3.99,1.64-3.37,0-5.94-1.54-5.94-4.79s2.67-4.82,5.66-4.82c1.32,0,2.39.32,3.18.79v-.1c-.38-3.72-.6-5.33-2.23-5.33-2.17,0-1.29,4.22-4.09,4.22-1.32,0-2.2-.82-2.2-2.05,0-2.59,3.08-3.69,6.29-3.69,4.21,0,7.14,2.46,7.64,6.37l.69,5.64c.28,2.24,1.6,1.7,1.6,2.59h0Zm-7.23-2.71l-.13-1.45c-.22-1.89-1.04-2.62-1.95-2.62s-1.6.85-1.6,2.14c0,2.24.75,4.19,2.04,4.19,1.04,0,1.63-1.2,1.63-2.27Z" fill="#fff6e1"/>
  <path d="m199.35,181.62h3.55c.41,0,.72.32.72.73v.69c0,.41-.32.73-.72.73h-3.43v9.52c0,1.48,1.7,1.86,1.7,2.74v.13c0,.38-.29.6-.72.6h-6.92c-.44,0-.72-.22-.72-.6v-.13c0-.88,1.26-1.26,1.26-2.74v-9.52h-2.04c-.41,0-.72-.32-.72-.73v-.69c0-.41.31-.73.72-.73h2.04v-1.58c0-3.5,1.95-6.34,6.51-6.34,2.8,0,5.03,1.86,5.03,4,0,.85-.66,1.89-2.04,1.89-3.71,0-1.89-4.38-4.15-4.38s-.91,4.89-.06,6.4Z" fill="#fff6e1"/>
  <path d="m205.89,191.23v-7.47h-1.19c-.41,0-.72-.32-.72-.73v-.69c0-.44.28-.73.72-.73h.6c1.92,0,3.43-1.26,3.84-3.19.09-.5.44-.82.85-.82h.72c.5,0,.85.32.85.82v3.19h3.24c.41,0,.72.32.72.73v.69c0,.41-.32.73-.72.73h-3.24v7.56c0,1.07.63,1.7,1.41,1.7,1.23,0,1.73-.6,2.08-1.17.44-.57,1.19-.38,1.19.22,0,2.43-1.79,4.98-5.22,4.98-3.11,0-5.12-2.02-5.12-5.83Z" fill="#fff6e1"/>
  <path d="m240.51,196.02v.13c0,.38-.29.6-.72.6h-4.5c-.5,0-.82-.31-.82-.79v-.28c-.94.88-2.3,1.39-3.83,1.39-3.8,0-7.42-2.71-7.42-7.88,0-4.7,3.49-7.88,7.45-7.88,1.32,0,2.39.32,3.24.88v-4.19c0-1.48-1.66-1.67-1.66-2.58v-.1c0-.35.28-.69.72-.82l4.91-1.48c.91-.28,1.38-.09,1.38.76v19.54c0,1.45,1.26,1.83,1.26,2.71h0Zm-6.6-3.15v-6.08c0-2.02-1.38-3.94-2.83-3.94-1.54,0-2.39,1.35-2.49,3.88-.09,2.65.94,8.7,3.3,8.79,1.07.03,2.01-.95,2.01-2.65Z" fill="#fff6e1"/>
  <path d="m255.35,184.42c0,1.58-.6,2.96-2.42,2.96-2.86,0-1.57-2.96-3.15-2.96-1,0-1.16,1.64-1.16,3.02v5.86c0,1.45,1.67,1.83,1.67,2.71v.13c0,.38-.32.6-.76.6h-6.76c-.44,0-.76-.22-.76-.6v-.13c0-.88,1.26-1.26,1.26-2.71v-6.27c0-1.48-1.51-1.61-1.51-2.52v-.1c0-.38.25-.66.72-.92l4.43-2.08c.82-.38,1.13.06,1.13.69v2.3c.69-2.02,2.17-3.12,4.34-3.12,1.85,0,2.96,1.35,2.96,3.12h0Z" fill="#fff6e1"/>
  <path d="m256.23,196.15v-.13c0-.91,1.26-1.29,1.26-2.74v-5.99c0-1.45-1.26-1.89-1.26-2.65v-.13c0-.35.28-.51.72-.72l4.75-2.33c.88-.44,1.42.06,1.42.66v11.16c0,1.45,1.41,1.83,1.41,2.74v.13c0,.38-.31.6-.79.6h-6.76c-.47,0-.76-.22-.76-.6Zm.5-19.54c0-1.8,1.45-3.15,3.62-3.15s3.58,1.36,3.58,3.15-1.45,3.15-3.58,3.15-3.62-1.39-3.62-3.15Z" fill="#fff6e1"/>
  <path d="m284.09,196.05v.13c0,.38-.32.6-.76.6h-6.29c-.47,0-.76-.22-.76-.6v-.13c0-.91,1.23-1.29,1.13-2.74l-.32-5.64c-.15-3.12-.75-4.29-2.17-4.29s-2.04,1.23-2.04,3.06v6.87c0,1.45,1.38,1.83,1.38,2.74v.13c0,.38-.29.6-.76.6h-6.79c-.47,0-.76-.22-.76-.6v-.13c0-.91,1.38-1.29,1.38-2.74v-6.21c0-1.51-1.67-1.7-1.67-2.62v-.1c0-.38.31-.57.76-.79l4.4-2.18c.79-.41,1.19.13,1.19.75v1.48c.85-1.51,2.42-2.36,4.5-2.36,2.74,0,5.63,1.54,6.01,6.55l.41,5.45c.1,1.45,1.13,1.83,1.13,2.74h0Z" fill="#fff6e1"/>
  <path d="m303.71,196.02v.13c0,.38-.29.6-.72.6h-6.6c-.44,0-.72-.25-.72-.63v-.1c0-.88,1.17-1.13.66-1.92l-2.77-4.13-1.57,1.45v1.89c0,1.45,1.42,1.8,1.42,2.71v.13c0,.38-.32.6-.76.6h-6.79c-.44,0-.75-.22-.75-.6v-.13c0-.91,1.26-1.26,1.26-2.71v-14.4c0-1.48-1.51-1.89-1.51-2.68v-.13c0-.35.28-.51.69-.72l5.03-2.33c.88-.41,1.42.1,1.42.66v14.97l4.24-3.65c.97-.82-.78-1.8-.78-2.65v-.13c0-.38.28-.63.72-.63h4.97c.44,0,.72.22.72.6v.13c0,.88-1.7,1.48-2.95,2.65l-2.02,1.86,5.06,7.25c.47.69,1.76,1.04,1.76,1.92Z" fill="#fff6e1"/>
  <path d="m303.53,193.34c0-1.42.97-2.02,2.23-2.02,3.15,0,2.08,4.32,4.68,4.32.94,0,1.7-.47,1.7-1.73,0-4.13-8.33-1.7-8.33-7.82,0-2.81,2.7-4.79,6.63-4.79s6.6,1.73,6.6,3.78c0,1.1-.95,1.92-2.11,1.92-3.05,0-2.04-4.26-4.21-4.26-.98,0-1.48.88-1.48,1.8,0,4.32,8.05,2.05,8.05,7.85,0,2.62-2.49,4.63-6.86,4.63-3.96,0-6.92-1.48-6.92-3.69Z" fill="#fff6e1"/>
  <path d="m326.33,191.23v-7.47h-1.19c-.41,0-.72-.32-.72-.73v-.69c0-.44.28-.73.72-.73h.6c1.92,0,3.43-1.26,3.84-3.19.1-.5.44-.82.85-.82h.72c.5,0,.85.32.85.82v3.19h3.24c.41,0,.72.32.72.73v.69c0,.41-.31.73-.72.73h-3.24v7.56c0,1.07.63,1.7,1.41,1.7,1.23,0,1.73-.6,2.07-1.17.44-.57,1.19-.38,1.19.22,0,2.43-1.79,4.98-5.22,4.98-3.11,0-5.12-2.02-5.12-5.83Z" fill="#fff6e1"/>
  <path d="m351.07,184.42c0,1.58-.6,2.96-2.42,2.96-2.86,0-1.57-2.96-3.14-2.96-1.01,0-1.17,1.64-1.17,3.02v5.86c0,1.45,1.67,1.83,1.67,2.71v.13c0,.38-.31.6-.75.6h-6.76c-.44,0-.76-.22-.76-.6v-.13c0-.88,1.26-1.26,1.26-2.71v-6.27c0-1.48-1.51-1.61-1.51-2.52v-.1c0-.38.25-.66.72-.92l4.44-2.08c.82-.38,1.13.06,1.13.69v2.3c.69-2.02,2.17-3.12,4.34-3.12,1.86,0,2.95,1.35,2.95,3.12h0Z" fill="#fff6e1"/>
  <path d="m368.21,195.9c0,.82-1.82,1.04-3.55,1.04-1.89,0-2.8-.38-3.05-1.51-.66.91-1.92,1.64-3.99,1.64-3.36,0-5.94-1.54-5.94-4.79s2.67-4.82,5.66-4.82c1.32,0,2.39.32,3.17.79v-.1c-.38-3.72-.6-5.33-2.23-5.33-2.17,0-1.29,4.22-4.09,4.22-1.32,0-2.2-.82-2.2-2.05,0-2.59,3.08-3.69,6.29-3.69,4.21,0,7.14,2.46,7.64,6.37l.69,5.64c.28,2.24,1.6,1.7,1.6,2.59h0Zm-7.23-2.71l-.13-1.45c-.22-1.89-1.04-2.62-1.95-2.62s-1.6.85-1.6,2.14c0,2.24.76,4.19,2.04,4.19,1.04,0,1.63-1.2,1.63-2.27Z" fill="#fff6e1"/>
  <path d="m385.95,196.02v.13c0,.38-.28.6-.72.6h-4.5c-.5,0-.82-.31-.82-.79v-.28c-.95.88-2.3,1.39-3.84,1.39-3.81,0-7.42-2.71-7.42-7.88,0-4.7,3.49-7.88,7.45-7.88,1.32,0,2.39.32,3.24.88v-4.19c0-1.48-1.67-1.67-1.67-2.58v-.1c0-.35.28-.69.72-.82l4.91-1.48c.91-.28,1.38-.09,1.38.76v19.54c0,1.45,1.26,1.83,1.26,2.71h0Zm-6.6-3.15v-6.08c0-2.02-1.38-3.94-2.83-3.94-1.54,0-2.39,1.35-2.48,3.88-.1,2.65.94,8.7,3.3,8.79,1.07.03,2.01-.95,2.01-2.65Z" fill="#fff6e1"/>
  <path d="m387.4,196.15v-.13c0-.91,1.26-1.29,1.26-2.74v-5.99c0-1.45-1.26-1.89-1.26-2.65v-.13c0-.35.28-.51.72-.72l4.75-2.33c.88-.44,1.42.06,1.42.66v11.16c0,1.45,1.42,1.83,1.42,2.74v.13c0,.38-.32.6-.79.6h-6.76c-.47,0-.75-.22-.75-.6Zm.5-19.54c0-1.8,1.45-3.15,3.62-3.15s3.58,1.36,3.58,3.15-1.45,3.15-3.58,3.15-3.62-1.39-3.62-3.15Z" fill="#fff6e1"/>
  <path d="m415.25,196.05v.13c0,.38-.31.6-.76.6h-6.29c-.47,0-.75-.22-.75-.6v-.13c0-.91,1.23-1.29,1.13-2.74l-.32-5.64c-.16-3.12-.76-4.29-2.17-4.29s-2.04,1.23-2.04,3.06v6.87c0,1.45,1.38,1.83,1.38,2.74v.13c0,.38-.28.6-.75.6h-6.79c-.47,0-.76-.22-.76-.6v-.13c0-.91,1.38-1.29,1.38-2.74v-6.21c0-1.51-1.66-1.7-1.66-2.62v-.1c0-.38.31-.57.75-.79l4.4-2.18c.78-.41,1.19.13,1.19.75v1.48c.85-1.51,2.42-2.36,4.5-2.36,2.74,0,5.63,1.54,6.01,6.55l.41,5.45c.1,1.45,1.13,1.83,1.13,2.74h0Z" fill="#fff6e1"/>
  <path d="m432.52,182.66c-.13,1.23-1.35,1.1-2.36,1.42.91,1.04,1.54,2.43,1.54,3.91,0,2.43-1.29,4.35-3.4,5.42,2.83.6,3.71,1.8,3.71,3.37,0,2.52-3.62,4.22-8.21,4.22s-7.42-1.45-7.42-4.13c0-.98.69-2.08,2.17-2.08,2.86,0,2.39,4.66,5.28,4.7,1.67.03,2.61-1.07,2.61-2.65,0-1.35-.44-2.3-1.32-2.55-.35.03-.76.06-1.13.06-4.4,0-7.64-2.58-7.64-6.33,0-4,3.18-6.71,7.7-6.71,1.98,0,3.33.32,6.16.32,2.04,0,2.39.32,2.3,1.04h0Zm-7.73,10.12c1.07,0,1.7-1.01,1.7-2.65,0-2.62-1.35-7.28-3.24-7.28-1.01,0-1.64.98-1.64,2.65,0,3.15,1.48,7.28,3.18,7.28Z" fill="#fff6e1"/>
  <path d="m439.85,189.15c0-4.92,3.71-7.82,7.99-7.85,3.68-.03,6.7,1.86,6.7,4.66,0,.95-.6,1.89-2.3,1.83-3.21-.19-2.92-4.98-5.25-4.95-1.32.03-2.2,1.61-2.2,3.53,0,4.1,2.01,6.81,5.12,6.81,1.76,0,2.83-.95,3.49-1.83.41-.51,1.2-.35,1.2.35-.09,2.74-2.26,5.36-6.57,5.36-4.94,0-8.17-3.78-8.17-7.91Z" fill="#fff6e1"/>
  <path d="m455.89,189.15c0-4.66,3.99-7.85,8.49-7.85,4.72,0,8.61,3.28,8.61,7.91s-3.8,7.85-8.4,7.85-8.71-3.34-8.71-7.91h0Zm11.38,2.49c0-2.46-1.29-8.79-3.77-8.79-1.51,0-2.04,1.39-2.04,3.94s1.26,8.73,3.8,8.73c1.48,0,2.01-1.51,2.01-3.88h0Z" fill="#fff6e1"/>
  <path d="m474.54,194.07c0-2.05,1.51-2.96,3.33-2.96s3.3.91,3.3,2.96-1.51,2.99-3.3,2.99-3.33-.94-3.33-2.99Z" fill="#fff6e1"/>
  <path d="m33.23,33.45l12.75,51.16-11.58,2.9-12.75-51.16c-.21-.83-1.05-1.34-1.88-1.13L1.18,39.87c-.83.21-1.34,1.05-1.13,1.89l31.71,127.27c.21.83,1.05,1.34,1.88,1.13l18.6-4.66c.83-.21,1.34-1.05,1.13-1.89l-13.44-53.93,11.58-2.9,13.44,53.93c.21.83,1.05,1.34,1.88,1.13l18.6-4.66c.83-.21,1.34-1.05,1.13-1.89L54.85,28.04c-.21-.83-1.05-1.34-1.88-1.13l-18.6,4.66c-.83.21-1.34,1.05-1.13,1.89Z" fill="#fff6e1"/>
  <path d="m86.53,21.49l3.77,132.61c.03.95.89,1.66,1.83,1.49l18.34-3.32c.77-.14,1.31-.82,1.28-1.6l-1.17-25.63,15.61-2.82,7.83,24.43c.24.74.99,1.19,1.75,1.05l18.34-3.32c.93-.17,1.5-1.13,1.19-2.03L112.63,16.78c-.25-.73-.99-1.17-1.74-1.03l-23.08,4.17c-.76.14-1.3.81-1.28,1.58Zm27.7,79.11c-2.53.46-4.88-1.42-5-4l-1.19-26.11c-.04-.9,1.22-1.13,1.5-.27l7.98,24.88c.79,2.45-.76,5.04-3.29,5.5Z" fill="#fff6e1"/>
  <path d="m172.23,73.39l-16.17-63c-.19-.75-.92-1.25-1.69-1.16l-18.5,2.22c-.94.11-1.57,1.04-1.31,1.96l35.33,127.89c.21.74.92,1.22,1.68,1.13l19.05-2.28c.76-.09,1.34-.73,1.37-1.49l4.27-132.63c.03-.95-.79-1.71-1.74-1.6l-18.5,2.22c-.77.09-1.36.74-1.37,1.52l-.91,65.04c-.01.9-1.29,1.05-1.51.18h0Z" fill="#fff6e1"/>
  <path d="m236.69,113.31l-2.03-32.97,16.23-1c.86-.05,1.51-.79,1.46-1.65l-1.29-20.96c-.05-.86-.79-1.51-1.65-1.46l-16.24,1-1.93-31.37,23.17-1.43c.86-.05,1.51-.79,1.46-1.65l-1.21-19.72c-.05-.86-.79-1.51-1.65-1.46l-43.85,2.71c-.86.05-1.51.79-1.45,1.65l8.04,130.95c.05.86.79,1.51,1.65,1.46l43.86-2.71c.86-.05,1.51-.79,1.46-1.65l-1.21-19.71c-.05-.86-.79-1.51-1.65-1.46l-23.17,1.43h0Z" fill="#fff6e1"/>
  <path d="m312.69,1.29l-22.83,130.69c-.16.94.54,1.8,1.49,1.82l18.63.44c.78.02,1.45-.54,1.57-1.31l3.98-25.35,15.87.37,2.79,25.51c.09.78.73,1.37,1.51,1.39l18.63.44c.95.02,1.7-.81,1.58-1.75L339.21,1.91c-.1-.76-.74-1.34-1.5-1.36L314.26,0c-.77-.02-1.43.53-1.57,1.29h0Zm11.32,83.08c-2.57-.06-4.5-2.38-4.1-4.92l4.06-25.82c.14-.89,1.43-.86,1.52.04l2.85,25.98c.28,2.56-1.76,4.79-4.33,4.73Z" fill="#fff6e1"/>
  <path d="m420.56,29.5l24.84,2.72c.85.09,1.62-.52,1.71-1.38l2.14-19.64c.09-.85-.52-1.62-1.37-1.72l-45.45-4.98c-.85-.09-1.62.52-1.71,1.38l-14.22,130.41c-.09.85.52,1.62,1.37,1.71l19.06,2.09c.85.09,1.62-.52,1.71-1.38l6.02-55.26,16.17,1.77c.85.09,1.62-.52,1.71-1.38l2.14-19.63c.09-.85-.52-1.62-1.37-1.72l-16.17-1.77,3.41-31.24h0Z" fill="#fff6e1"/>
  <path d="m486.73,93.53l3.38-20.73c.14-.85-.44-1.65-1.28-1.79l-16.05-2.63,5.05-31.01,22.91,3.75c.85.14,1.64-.44,1.78-1.28l3.17-19.49c.14-.85-.44-1.65-1.28-1.79l-43.35-7.1c-.85-.14-1.64.44-1.78,1.28l-21.1,129.45c-.14.85.44,1.65,1.28,1.79l43.35,7.1c.85.14,1.64-.44,1.78-1.29l3.18-19.49c.14-.85-.44-1.65-1.28-1.79l-22.9-3.75,5.31-32.59,16.05,2.63c.85.14,1.64-.44,1.78-1.28Z" fill="#fff6e1"/>
  <path d="m581.73,37.21l-19.93,55.5c-.31.86-1.59.56-1.49-.35l6.68-58.68c.09-.78-.42-1.51-1.18-1.69l-13.46-3.21c-.76-.18-1.54.24-1.82.98l-20.39,55.4c-.32.86-1.59.55-1.48-.36l7.13-58.55c.1-.79-.41-1.52-1.18-1.7l-17.26-4.12c-.92-.22-1.81.42-1.91,1.36l-13.13,131.72c-.08.78.43,1.49,1.18,1.67l14.5,3.46c.75.18,1.52-.22,1.8-.94l20.84-52.88c.33-.83,1.56-.53,1.48.35l-5.14,56.62c-.07.77.44,1.48,1.19,1.65l14.5,3.46c.75.18,1.53-.23,1.81-.96l47.43-123.54c.34-.88-.18-1.85-1.09-2.07l-17.26-4.12c-.77-.18-1.55.24-1.82.99h0Z" fill="#fff6e1"/>
</svg>