<svg width="196" height="173" viewBox="0 0 196 173" fill="none" xmlns="http://www.w3.org/2000/svg">
<g clip-path="url(#clip0_310_3588)">
<path d="M97.5668 12.3714C97.616 12.4922 97.7444 12.5608 97.8647 12.5663H99.8706C99.9881 12.5663 100.111 12.4949 100.166 12.3714L102.357 6.90638C102.393 6.83501 102.445 6.80207 102.532 6.80207C102.601 6.80207 102.655 6.83776 102.691 6.90638L104.973 12.3686C105.03 12.4977 105.15 12.5608 105.273 12.558L107.342 12.5635C107.462 12.5635 107.588 12.4894 107.637 12.3686L112.36 0.730455C112.485 0.499887 112.329 0.222656 112.062 0.222656H109.657C109.52 0.222656 109.411 0.296767 109.345 0.417541L107.044 6.28879C107.025 6.3629 106.954 6.39584 106.886 6.39584C106.815 6.39584 106.746 6.36015 106.727 6.28604L104.443 0.417541C104.396 0.296767 104.268 0.222656 104.128 0.225401H102.183C102.04 0.225401 101.939 0.296767 101.863 0.420286L99.6355 6.29153C99.6191 6.36015 99.5481 6.39584 99.4798 6.39309C99.4087 6.39309 99.3404 6.35741 99.3049 6.28604L97.0202 0.423031C96.971 0.296767 96.8508 0.228146 96.706 0.228146H92.9866C92.7188 0.228146 92.563 0.508121 92.686 0.733199L97.5668 12.3714Z" fill="#004539"/>
<path d="M116.748 12.5635H128.349C128.541 12.5635 128.702 12.4016 128.702 12.2067V10.2688C128.702 10.0739 128.541 9.91749 128.349 9.91474H120.785C120.695 9.91474 120.61 9.85161 120.61 9.73907V7.83688C120.61 7.75179 120.697 7.65847 120.779 7.65572L126.015 7.66121C126.207 7.66121 126.362 7.49927 126.362 7.30713V5.47631C126.362 5.28142 126.207 5.12497 126.015 5.12222H120.785C120.697 5.12222 120.61 5.04811 120.61 4.94655V3.04437C120.61 2.95379 120.697 2.8687 120.785 2.86595H128.352C128.541 2.86595 128.699 2.7095 128.702 2.51461L128.696 0.571253C128.694 0.379113 128.538 0.222656 128.347 0.222656H116.743C116.552 0.222656 116.393 0.381858 116.393 0.576743L116.401 12.2067C116.401 12.3988 116.552 12.5608 116.748 12.5635Z" fill="#004539"/>
<path d="M100.598 121.235C113.953 121.235 124.827 132.151 124.829 145.574C124.829 159.012 113.961 169.942 100.606 169.942C87.2423 169.948 76.3848 159.012 76.3793 145.582C76.3793 132.159 87.2395 121.235 100.598 121.235ZM100.606 173C115.65 172.997 127.882 160.687 127.882 145.574C127.882 130.477 115.642 118.183 100.595 118.183C85.5589 118.185 73.3323 130.482 73.3405 145.579C73.3405 160.692 85.5643 173.003 100.606 173Z" fill="#004539"/>
<path d="M142.117 102.498L144.681 90.8899C144.801 90.1653 144.123 89.4544 143.448 89.4571H124.537C123.922 89.4571 123.313 88.9521 123.318 88.2466V74.6157C123.318 73.9597 123.922 73.4327 124.534 73.4354L138.152 73.4299C138.644 73.4299 139.106 72.9962 139.229 72.3841L141.735 60.8063C141.852 60.2244 141.431 59.3982 140.51 59.401H124.534C123.922 59.401 123.315 58.8328 123.315 58.1356V44.5623C123.315 43.9584 123.914 43.3683 124.534 43.3628H140.508C141.008 43.3628 141.486 43.0114 141.642 42.4103L144.115 30.7639C144.227 30.0886 143.801 29.3283 142.934 29.3311L107.662 29.3366C107.055 29.3366 106.457 29.9514 106.454 30.4976L106.462 102.292C106.462 103.014 107.063 103.505 107.67 103.511L140.958 103.505C141.491 103.503 141.986 103.132 142.117 102.498Z" fill="#004539"/>
<path d="M64.1336 2.62683C65.8197 2.62683 67.5196 3.84005 67.5196 6.34885V6.45316C67.5196 8.95372 65.817 10.1889 64.1363 10.1697C62.4475 10.1916 60.764 8.95372 60.764 6.4559V6.34611C60.764 3.84554 62.4502 2.62683 64.1336 2.62683ZM64.1336 12.7993C69.1374 12.7993 71.7336 9.95834 71.7336 6.401C71.7336 2.83544 69.1319 0.00274486 64.1363 0C59.1298 0.00274486 56.55 2.83818 56.55 6.39551C56.55 9.95285 59.1298 12.7965 64.1336 12.7993Z" fill="#004539"/>
<path d="M82.3861 12.7988C85.8623 12.7988 88.7891 11.1025 88.7918 7.02911V0.578696C88.7918 0.386556 88.6333 0.227354 88.4366 0.230099H86.2421C86.0508 0.227354 85.8923 0.386556 85.8923 0.575951V7.18831C85.8951 8.82699 84.7008 10.172 82.9136 10.1692C81.14 10.1692 79.9457 9.07402 79.9457 7.26242V0.575951C79.9457 0.383811 79.7927 0.224609 79.5959 0.224609H76.0815C75.8902 0.224609 75.7317 0.386556 75.729 0.578696L75.7345 6.92755C75.7345 11.2974 78.8581 12.7988 82.3861 12.7988Z" fill="#004539"/>
<path d="M179.335 64.016C171.044 55.7457 169.568 52.8087 169.568 49.6631C169.571 44.3217 172.337 42.0599 175.627 42.0599C178.373 42.0599 180.756 43.8276 181.464 47.4508C181.598 48.0519 182.224 48.546 182.708 48.5405C182.956 48.546 183.074 48.4307 183.312 48.3182L194.002 41.9446C194.497 41.5329 194.77 41.0553 194.497 40.4487C192.729 33.441 185.757 28.1133 175.709 28.1133C162.228 28.1133 152.833 36.8117 152.833 50.3713C152.833 60.2199 157.276 66.2393 169.429 77.496C178.141 85.5219 179.098 89.4855 179.098 92.159C179.098 97.9314 175.829 100.86 171.263 100.863C168.248 100.863 165.005 98.3486 164.381 93.6C164.267 93.0044 163.835 92.5103 163.171 92.5131C162.971 92.5131 162.698 92.6476 162.458 92.7711L151.521 99.883C151.037 100.13 150.851 100.726 151.034 101.338C154.53 110.758 163.078 115.249 171.886 115.246C185.383 115.246 195.997 106.863 196 92.2606C195.995 83.1943 192.972 77.4109 179.335 64.016Z" fill="#004539"/>
<path d="M163.818 12.7826C167.06 12.7826 170.38 11.1988 170.383 7.33677V0.567954C170.383 0.373069 170.221 0.216612 170.027 0.213867L166.521 0.219357C166.324 0.219357 166.171 0.375814 166.166 0.573443V7.37245C166.166 9.4009 165.097 10.1585 163.518 10.1585C162.553 10.1585 161.342 9.64519 160.621 8.80252C160.553 8.72841 160.449 8.69273 160.359 8.69547C160.274 8.69547 160.184 8.7339 160.11 8.80252L158.727 10.3204C158.588 10.4604 158.588 10.6498 158.711 10.7953C159.938 12.2391 161.818 12.788 163.818 12.7826Z" fill="#004539"/>
<path d="M151.045 140.616C151.045 140.509 151.146 140.413 151.253 140.413H151.575C152.893 140.413 153.521 141.676 153.521 142.922V142.963C153.521 144.325 152.955 145.464 151.573 145.469H151.247C151.152 145.472 151.045 145.37 151.045 145.266V140.616ZM148.411 152.381L150.846 152.375C150.969 152.375 151.048 152.29 151.048 152.169V147.909C151.048 147.786 151.146 147.706 151.247 147.706H151.701C151.778 147.706 151.862 147.747 151.903 147.83L153.543 152.252C153.584 152.334 153.65 152.375 153.745 152.375H156.24C156.385 152.375 156.486 152.232 156.426 152.092L154.393 147.143C154.379 147.039 154.393 146.938 154.475 146.896C155.718 146.018 156.363 144.572 156.361 142.958V142.859C156.361 140.273 154.778 138.107 151.635 138.113L148.408 138.107C148.307 138.113 148.206 138.212 148.209 138.313V152.175C148.209 152.296 148.307 152.378 148.411 152.381Z" fill="#004539"/>
<path d="M150.69 12.5606H154.199C154.39 12.5606 154.551 12.4014 154.551 12.2065V0.571068C154.551 0.373438 154.393 0.219727 154.199 0.219727H150.687C150.493 0.219727 150.335 0.381673 150.335 0.573813V12.2093C150.335 12.4041 150.493 12.5633 150.69 12.5606Z" fill="#004539"/>
<path d="M184.432 138.107H178.321C178.22 138.107 178.138 138.168 178.119 138.269L177.715 140.226C177.671 140.35 177.775 140.468 177.898 140.473H179.54C179.639 140.473 179.745 140.57 179.743 140.674V152.172C179.743 152.293 179.822 152.372 179.947 152.375H182.382C182.484 152.375 182.582 152.293 182.587 152.172V140.677C182.587 140.572 182.664 140.473 182.79 140.471H184C184.107 140.471 184.189 140.408 184.205 140.306L184.612 138.352C184.651 138.228 184.555 138.107 184.432 138.107Z" fill="#004539"/>
<path d="M137.141 3.0387C137.143 2.95086 137.225 2.86577 137.318 2.86303H139.915C141.161 2.86303 141.789 3.58492 141.789 4.41113C141.789 5.22909 141.163 5.96471 139.912 5.96746H137.318C137.234 5.96746 137.141 5.87413 137.141 5.78904V3.0387ZM133.279 12.5633L136.791 12.5579C136.985 12.5579 137.146 12.3987 137.143 12.2065V8.79192C137.143 8.67938 137.234 8.6135 137.316 8.61075H139.004C139.07 8.61075 139.108 8.62448 139.147 8.68212L141.934 12.4151C142.005 12.503 142.093 12.5606 142.213 12.5579H145.984C146.123 12.5579 146.252 12.4892 146.307 12.363C146.372 12.2395 146.356 12.0995 146.268 11.9924L143.546 8.33078C143.481 8.2402 143.511 8.10021 143.623 8.06178C145.142 7.37831 145.987 6.12392 146.003 4.41387C145.954 1.22709 143.284 0.216987 140.491 0.219732H133.279C133.091 0.219732 132.929 0.381679 132.929 0.573819V12.2065C132.929 12.3987 133.088 12.5579 133.279 12.5633Z" fill="#004539"/>
<path d="M85.1408 137.438H87.5238C87.7069 137.438 87.8654 137.605 87.8681 137.786V153.44C87.8681 153.594 87.7096 153.745 87.5238 153.747H85.1435C84.9577 153.753 84.8047 153.901 84.8019 154.074V156.484C84.8047 156.654 84.9604 156.797 85.1408 156.794H97.9304C98.0916 156.802 98.2337 156.649 98.2337 156.481V154.063C98.2337 153.901 98.0916 153.745 97.9304 153.745H95.52C95.3314 153.745 95.3151 153.66 95.4435 153.517L101.303 148.351C101.478 148.219 101.688 148.241 101.778 148.379L106.246 153.5C106.377 153.621 106.328 153.745 106.153 153.745H103.287C103.109 153.745 102.945 153.901 102.948 154.066V156.481C102.948 156.646 103.109 156.797 103.289 156.797H116.093C116.246 156.797 116.393 156.646 116.388 156.476L116.393 154.066C116.393 153.901 116.243 153.745 116.093 153.745H114.335C114.139 153.745 113.904 153.621 113.794 153.498L106.063 144.61C105.937 144.508 105.937 144.28 106.063 144.16L113.45 137.654C113.611 137.539 113.857 137.44 114.073 137.438H116.09C116.237 137.44 116.388 137.3 116.388 137.097V134.687C116.388 134.528 116.243 134.366 116.09 134.363H103.284C103.106 134.363 102.942 134.522 102.945 134.695V137.1C102.945 137.3 103.106 137.44 103.284 137.44H104.803C104.973 137.44 105.008 137.542 104.88 137.654L95.4408 145.969C95.3151 146.089 95.1975 146.018 95.1975 145.848V137.786C95.1975 137.605 95.3287 137.44 95.5173 137.44H97.9276C98.0889 137.44 98.231 137.3 98.2282 137.105V134.695C98.2282 134.528 98.0889 134.366 97.9331 134.372L85.1408 134.366C84.955 134.372 84.8019 134.528 84.7992 134.698V137.108C84.7992 137.306 84.955 137.44 85.1408 137.438Z" fill="#004539"/>
<path d="M77.0544 43.3714H93.1014C93.5851 43.3714 94.1235 43.02 94.1891 42.4189L96.6978 30.767C96.8426 30.089 96.3781 29.3315 95.55 29.3369H60.2175C59.6436 29.3424 58.9905 29.9518 58.9905 30.5063L59.0014 102.298C58.9987 103.023 59.6518 103.517 60.2257 103.517L93.4594 103.511C94.1317 103.511 94.5498 103.13 94.7165 102.509L97.2171 90.8958C97.3072 90.1684 96.706 89.4603 96.0255 89.4603H77.0598C76.5105 89.4603 75.9038 88.9607 75.9038 88.2553V74.6188C75.9038 73.9628 76.5078 73.4413 77.0571 73.4413L90.6966 73.433C91.1967 73.4385 91.7077 72.9966 91.8006 72.39L94.3339 60.8149C94.4678 60.2248 93.9568 59.4041 93.1069 59.4041H77.0571C76.4996 59.4041 75.9066 58.8386 75.9066 58.1415L75.9011 44.5627C75.9038 43.9643 76.4996 43.3714 77.0544 43.3714Z" fill="#004539"/>
<path d="M141.997 140.191C142.929 140.191 143.232 141.072 143.216 141.901C143.216 142.025 143.358 142.104 143.478 142.085L145.547 141.533C145.629 141.511 145.692 141.412 145.692 141.311C145.427 139.293 144.249 137.904 142.035 137.907C138.258 137.907 137.575 141.802 137.57 144.918V145.568C137.575 148.689 138.264 152.581 142.038 152.581C144.249 152.581 145.427 151.192 145.692 149.178C145.692 149.073 145.629 148.972 145.547 148.95L143.481 148.404C143.355 148.382 143.213 148.464 143.216 148.585C143.235 149.444 142.934 150.298 141.994 150.3C140.737 150.3 140.415 148.178 140.415 145.898V144.591C140.409 142.307 140.734 140.191 141.997 140.191Z" fill="#004539"/>
<path d="M35.0292 145.483H34.7012C34.6001 145.483 34.499 145.381 34.499 145.274V140.63C34.499 140.526 34.5974 140.43 34.6985 140.43H35.0237C36.3436 140.43 36.9722 141.69 36.9722 142.933V142.974C36.9749 144.338 36.4065 145.48 35.0292 145.483ZM39.8799 152.104L37.8439 147.155C37.8248 147.053 37.8439 146.951 37.9259 146.91C39.1666 146.032 39.8143 144.588 39.8116 142.974V142.875C39.8116 140.281 38.2293 138.124 35.0893 138.124H31.8591C31.7552 138.124 31.6569 138.228 31.6569 138.33V152.186C31.6569 152.312 31.7552 152.395 31.8591 152.395L34.294 152.389C34.417 152.389 34.499 152.307 34.499 152.186V147.926C34.4963 147.802 34.5974 147.723 34.6985 147.723H35.1467C35.2286 147.723 35.3134 147.758 35.3544 147.844L36.994 152.266C37.0323 152.348 37.0952 152.392 37.1963 152.386H39.6886C39.8362 152.386 39.94 152.246 39.8799 152.104Z" fill="#004539"/>
<path d="M26.8225 3.05529C26.8225 2.9702 26.9127 2.87688 26.9974 2.87688H29.7138C30.6129 2.87688 31.0502 3.47526 31.0502 4.00501C31.0529 4.55399 30.6102 5.13041 29.7384 5.1359H26.9947C26.91 5.1359 26.8198 5.06178 26.8198 4.95748L26.8225 3.05529ZM31.4738 8.75087C31.4738 9.31357 31.001 9.93116 30.0308 9.92567L27.0001 9.93116C26.91 9.93116 26.828 9.85979 26.8225 9.75274L26.828 7.68861C26.828 7.60352 26.91 7.51294 26.9974 7.51294H30.0527C30.9983 7.51294 31.4738 8.18543 31.4738 8.75087ZM22.9611 12.5745L30.9655 12.569C34.0754 12.5745 35.6878 11.1279 35.6878 9.15436V9.11319C35.6878 7.60078 34.8406 6.7581 33.5261 6.26403C33.455 6.24482 33.4223 6.18992 33.4223 6.10757C33.4223 6.03072 33.455 5.98131 33.5261 5.94288C34.5755 5.45155 35.2833 4.58692 35.2806 3.30233V3.26665C35.2806 0.897839 32.9959 0.236328 31.0365 0.236328H22.9638C22.7698 0.236328 22.6085 0.392785 22.6085 0.584925V12.2176C22.6085 12.4125 22.767 12.5717 22.9611 12.5745Z" fill="#004539"/>
<path d="M172.522 140.473H175.037C175.119 140.471 175.198 140.41 175.217 140.312L175.643 138.354C175.668 138.231 175.586 138.11 175.444 138.113L169.678 138.107C169.571 138.107 169.478 138.212 169.475 138.311V152.172C169.478 152.293 169.576 152.375 169.68 152.372H172.115C172.238 152.372 172.317 152.293 172.317 152.172V145.672C172.317 145.571 172.424 145.469 172.52 145.469H174.632C174.711 145.469 174.791 145.406 174.813 145.302L175.239 143.347C175.258 143.243 175.176 143.103 175.037 143.103H172.52C172.421 143.103 172.317 143.023 172.317 142.9V140.677C172.317 140.575 172.419 140.471 172.522 140.473Z" fill="#004539"/>
<path d="M16.8806 112.888L16.8751 87.081C16.8751 86.1011 17.1265 85.5439 17.3588 85.0416L21.5619 76.7631C21.7122 76.5298 21.9472 76.4721 22.1932 76.4776C22.4036 76.4776 22.6933 76.5325 22.6878 76.7658L32.7992 113.201C32.8976 113.712 33.3868 114.082 34.018 114.077L49.4174 114.082C50.3521 114.082 50.7784 113.196 50.527 112.501L34.6001 59.9893C34.4826 59.6269 34.6029 59.2427 34.7204 58.9929L49.9913 31.1848C50.3493 30.3339 49.7782 29.3457 48.9091 29.3457H33.0124C32.5205 29.3484 32.1871 29.5927 31.9493 30.1033L18.1049 59.7642C17.9655 59.992 17.6868 60.0414 17.6239 60.0414C17.2413 60.0414 16.8751 59.8081 16.8751 59.4952L16.8669 30.515C16.8669 29.837 16.3777 29.3484 15.6699 29.3484H1.22703C0.590287 29.3484 0 29.9633 0 30.515V112.891C0.00819844 113.607 0.598486 114.082 1.23523 114.082H15.6809C16.3832 114.082 16.8778 113.599 16.8806 112.888Z" fill="#004539"/>
<path d="M14.7517 143.202C14.7517 144.525 14.2024 145.911 12.7048 145.908H12.6392C12.5162 145.908 12.437 145.81 12.4342 145.705V140.636C12.4342 140.529 12.519 140.432 12.6392 140.43H12.7048C14.1614 140.424 14.7544 141.854 14.7517 143.136V143.202ZM12.7622 138.124H9.79981C9.67683 138.127 9.59758 138.228 9.59485 138.333V152.189C9.60031 152.309 9.67957 152.392 9.80254 152.389H12.2375C12.3359 152.389 12.4397 152.307 12.437 152.189V148.354C12.437 148.236 12.5217 148.154 12.6447 148.154H12.8469C15.7874 148.151 17.5938 146.098 17.5965 143.216V143.136C17.5965 140.553 16.1919 138.124 12.7622 138.124Z" fill="#004539"/>
<path d="M45.5368 140.481L48.2395 140.487C48.3188 140.487 48.398 140.427 48.4199 140.325L48.8462 138.365C48.8681 138.242 48.7861 138.124 48.644 138.118H42.6947C42.599 138.124 42.4924 138.222 42.4924 138.324V152.18C42.4924 152.304 42.5935 152.386 42.6974 152.386H48.2997C48.4035 152.386 48.4828 152.326 48.4992 152.224L48.9309 150.27C48.9446 150.149 48.849 150.023 48.726 150.028L45.5395 150.023C45.4357 150.025 45.3346 149.94 45.3373 149.814V145.741C45.3373 145.645 45.4357 145.54 45.5395 145.54H47.8323C47.9143 145.54 47.9963 145.48 48.0154 145.378L48.4418 143.416C48.4554 143.32 48.3789 143.171 48.2395 143.171L45.5368 143.177C45.4384 143.177 45.3318 143.095 45.3318 142.971V140.687C45.3346 140.589 45.4357 140.484 45.5368 140.481Z" fill="#004539"/>
<path d="M44.1977 2.87669H46.7994C48.0428 2.87669 48.6713 3.59859 48.6713 4.42754C48.6768 5.23727 48.0428 5.97564 46.7939 5.97564H44.1977C44.113 5.97564 44.0228 5.89055 44.0228 5.80271V3.05236C44.0228 2.97002 44.1076 2.87669 44.1977 2.87669ZM40.1614 12.5715H43.673C43.8671 12.5715 44.0256 12.4096 44.0256 12.2174V8.79735C44.0256 8.69304 44.113 8.62442 44.1977 8.62442H45.8866C45.9522 8.62442 45.9905 8.64363 46.026 8.6903L48.8162 12.4315C48.8845 12.5166 48.972 12.5743 49.0977 12.5743L52.8662 12.5688C53.011 12.5688 53.134 12.5002 53.1832 12.3794C53.257 12.2531 53.2379 12.1131 53.1504 12.0088L50.4285 8.3417C50.3602 8.25112 50.3958 8.11113 50.4996 8.07271C52.0245 7.38649 52.8689 6.13484 52.8826 4.42479C52.8362 1.23527 50.1662 0.233398 47.3733 0.233398H40.1586C39.9701 0.233398 39.8088 0.389855 39.8088 0.58474V12.2202C39.8088 12.4151 39.9673 12.5743 40.1614 12.5715Z" fill="#004539"/>
<path d="M28.2901 138.124H25.847C25.7513 138.127 25.6448 138.226 25.6448 138.333L25.6502 148.494C25.6475 149.779 25.0408 150.273 24.333 150.273C23.6006 150.273 23.0076 149.784 23.0131 148.497L23.0076 138.324C23.0076 138.228 22.912 138.121 22.8108 138.124H20.3759C20.2721 138.124 20.1709 138.228 20.1682 138.327V148.253C20.1709 151.25 21.9336 152.595 24.3276 152.598C26.7242 152.592 28.4924 151.253 28.4896 148.253V138.322C28.4924 138.223 28.3885 138.124 28.2901 138.124Z" fill="#004539"/>
<path d="M57.1295 145.7C58.1625 145.7 58.914 146.721 58.914 147.879C58.914 149.084 58.1679 150.102 57.1295 150.102C56.0527 150.102 55.3039 149.081 55.3039 147.882C55.2985 146.721 56.0555 145.7 57.1295 145.7ZM57.1486 140.202C57.9821 140.202 58.5915 140.995 58.586 141.849C58.586 142.768 57.9821 143.501 57.1486 143.507C56.3178 143.498 55.6838 142.765 55.6893 141.849C55.6893 140.995 56.3178 140.199 57.1486 140.202ZM54.4896 144.357C54.6371 144.421 54.6344 144.624 54.4896 144.703C53.4976 145.315 52.7269 146.638 52.7214 148.046C52.7269 151.102 54.6508 152.567 57.1486 152.567C58.2882 152.567 59.3212 152.263 60.0891 151.612C60.1301 151.568 60.1711 151.552 60.2121 151.552C60.2531 151.552 60.3159 151.593 60.3569 151.631C60.8434 152.205 61.5512 152.548 62.6743 152.589C62.7536 152.589 62.8328 152.529 62.8492 152.427L63.2592 150.086C63.281 149.938 63.158 149.817 63.0296 149.836C62.9722 149.855 62.893 149.855 62.8274 149.855C62.084 149.855 61.5566 149.164 61.5512 148.288C61.5566 147.473 62.0813 146.702 62.8492 146.702C62.9121 146.702 62.9722 146.704 63.0542 146.721C63.158 146.743 63.281 146.619 63.2564 146.479L62.8492 144.193C62.8328 144.088 62.7509 144.009 62.6689 144.009C61.6741 144.05 60.9226 144.442 60.417 144.97C60.3733 145.013 60.3132 145.03 60.2722 145.03C60.2121 145.033 60.1738 145.013 60.1547 144.991C60.029 144.884 59.8923 144.78 59.7666 144.703C59.6245 144.621 59.6245 144.415 59.7666 144.357C60.6384 143.869 61.1057 142.581 61.103 141.747C61.1084 139.197 59.1189 137.921 57.1486 137.918C55.1181 137.915 53.1696 139.183 53.1724 141.75C53.1724 142.581 53.6397 143.869 54.4896 144.357Z" fill="#004539"/>
<path d="M163.529 148.499H161.763C161.64 148.499 161.545 148.381 161.561 148.258L162.556 143.122C162.572 143.059 162.613 143.023 162.654 143.021C162.698 143.021 162.736 143.056 162.736 143.122L163.731 148.252C163.75 148.379 163.649 148.499 163.529 148.499ZM164.16 138.267C164.135 138.171 164.056 138.107 163.958 138.107H161.337C161.236 138.107 161.157 138.171 161.135 138.269L158.049 152.134C158.03 152.254 158.131 152.375 158.254 152.378H160.607C160.711 152.378 160.793 152.315 160.81 152.213L161.056 150.907C161.072 150.805 161.157 150.745 161.258 150.742L164.021 150.747C164.116 150.747 164.196 150.786 164.223 150.909L164.485 152.21C164.502 152.315 164.584 152.378 164.687 152.378L167.043 152.372C167.163 152.372 167.262 152.252 167.221 152.125L164.16 138.267Z" fill="#004539"/>
</g>
<defs>
<clipPath id="clip0_310_3588">
<rect width="196" height="173" fill="white"/>
</clipPath>
</defs>
</svg>
