<svg xmlns="http://www.w3.org/2000/svg" xmlns:xlink="http://www.w3.org/1999/xlink"><defs><style>
    .sprite-symbol-usage {display: none;}
    .sprite-symbol-usage:target {display: inline;}
  </style><symbol viewBox="0 0 16 14" id="arrow-learn-more"><path d="M15 8H1a1 1 0 0 1 0-2h14a1 1 0 0 1 0 2Z" fill="currentColor" /><path d="M9 14a1 1 0 0 1-.71-.29 1 1 0 0 1 0-1.42L13.59 7l-5.3-5.29A1 1 0 0 1 9.71.29l6 6a1 1 0 0 1 0 1.42l-6 6A1 1 0 0 1 9 14Z" fill="currentColor" /></symbol><symbol viewBox="0 0 42.45 48.22" id="arrow_l"><path d="M25.93 48.22 0 24.11 25.93 0l5.14 5.52-15.95 14.82h27.33v7.54H15.13L31.07 42.7Zm-23-24.11 22.91 21.3 2.43-2.61-18.19-16.91h30.39v-3.56H10.06l18.2-16.91-2.43-2.61Z" /></symbol><symbol viewBox="0 0 42.5 48.22" id="arrow_r"><path d="M16.28 0 42.5 23.8 16.86 48.22l-5.21-5.46 15.77-15-27.33.32L0 20.54l27.32-.34L11.2 5.58Zm23.3 23.83-23.17-21L14 5.45l18.4 16.68L2 22.5l.05 3.56 30.4-.37-18 17.13 2.47 2.59Z" /></symbol><symbol viewBox="0 0 20.06 11.47" id="arrow_r_long"><path class="cls-1" d="M19.38 6.21H.61A.61.61 0 1 1 .61 5h18.77a.61.61 0 1 1 0 1.21Z" /><path class="cls-1" d="M13.17 11.47a.61.61 0 0 1-.38-1.08l5.71-4.66-5.71-4.65a.62.62 0 0 1-.09-.86.6.6 0 0 1 .85-.08l6.29 5.12a.62.62 0 0 1 .22.47.59.59 0 0 1-.22.47l-6.29 5.13a.59.59 0 0 1-.38.14Z" /></symbol><symbol viewBox="0 0 14 22" fill="currentColor" id="burger"><path d="M9.571 19.572a1.429 1.429 0 1 1 2.857 0 1.429 1.429 0 0 1-2.857 0ZM1 19.572a1.429 1.429 0 1 1 2.857 0 1.429 1.429 0 0 1-2.857 0ZM9.571 11a1.429 1.429 0 1 1 2.858 0 1.429 1.429 0 0 1-2.858 0ZM1 11a1.429 1.429 0 1 1 2.857 0A1.429 1.429 0 0 1 1 11ZM9.571 2.429a1.429 1.429 0 1 1 2.857 0 1.429 1.429 0 0 1-2.857 0ZM1 2.429a1.429 1.429 0 1 1 2.857 0 1.429 1.429 0 0 1-2.857 0Z" fill="#004538" stroke="#004538" stroke-width="2" stroke-linecap="round" stroke-linejoin="round" /></symbol><symbol fill="none" viewBox="0 0 66 66" id="plyr-play"><path opacity=".9" fill-rule="evenodd" clip-rule="evenodd" d="M33 66c18.225 0 33-14.775 33-33S51.225 0 33 0 0 14.775 0 33s14.775 33 33 33ZM23 19l27 13.988-27 13.987V19Z" fill="#F4EF4B" /></symbol><symbol viewBox="0 0 54.65 62.07" id="right"><defs></defs><g clip-path="url(#right_a)"><path d="m21.28 62.07-6.3-6.76 21.15-19.66H0v-9.23h36.12L14.98 6.76 21.28 0l33.38 31.04-33.38 31.03Zm-3.49-6.66 3.59 3.85 30.36-28.22L21.38 2.81l-3.59 3.85L41.18 28.4H1.99v5.26H41.2L17.8 55.41Z" fill="#fff6e1" /></g></symbol><clipPath id="right_a"><path fill="none" d="M0 0h54.65v62.07H0z" /></clipPath></defs><use id="arrow-learn-more-usage" xlink:href="#arrow-learn-more" class="sprite-symbol-usage" /><use id="arrow_l-usage" xlink:href="#arrow_l" class="sprite-symbol-usage" /><use id="arrow_r-usage" xlink:href="#arrow_r" class="sprite-symbol-usage" /><use id="arrow_r_long-usage" xlink:href="#arrow_r_long" class="sprite-symbol-usage" /><use id="burger-usage" xlink:href="#burger" class="sprite-symbol-usage" /><use id="plyr-play-usage" xlink:href="#plyr-play" class="sprite-symbol-usage" /><use id="right-usage" xlink:href="#right" class="sprite-symbol-usage" /></svg>