<svg width="78" height="78" viewBox="0 0 78 78" fill="none" xmlns="http://www.w3.org/2000/svg">
<path d="M77.6914 41.7884C76.9889 38.0924 74.8571 34.9424 72.2029 32.2821C73.2327 31.671 74.2336 30.9889 74.9672 30.0407C76.9414 27.4887 75.7076 24.2955 73.7602 22.1451C71.2784 19.4052 67.9352 17.7884 64.3852 16.827C64.9487 15.8298 65.4499 14.7857 65.6317 13.6654C66.1077 10.7345 63.9603 8.58985 61.4234 7.56041C57.7327 6.06284 53.6914 6.31918 49.8402 7.34354C49.8233 6.05092 49.7273 4.7333 49.1642 3.5583C47.8729 0.863456 44.704 0.392596 42.0335 0.900968C38.3239 1.60726 35.1597 3.73707 32.4861 6.38678C31.8746 5.36144 31.1919 4.36501 30.2417 3.63547C27.6844 1.67212 24.4783 2.90691 22.3177 4.8515C19.5644 7.32947 17.9366 10.6644 16.966 14.204C15.9664 13.6441 14.9196 13.1463 13.7958 12.9667C10.8559 12.4972 8.70044 14.6409 7.66332 17.171C6.15459 20.8517 6.4051 24.8791 7.42655 28.7157C6.12954 28.7346 4.80731 28.8325 3.62722 29.3956C0.921345 30.687 0.443651 33.8461 0.949318 36.5066C1.65185 40.2025 3.78361 43.3526 6.43783 46.0128C5.40802 46.624 4.4071 47.306 3.67353 48.2542C1.69932 50.8062 2.93297 53.9995 4.88054 56.1498C7.36016 58.8874 10.6999 60.5038 14.2464 61.4654C14.2485 61.468 14.2507 61.4703 14.2528 61.4729C13.6905 62.4687 13.1906 63.5112 13.009 64.6296C12.5331 67.5604 14.6804 69.7051 17.2174 70.7345C20.908 72.2321 24.9493 71.9758 28.8006 70.9512C28.8175 72.2438 28.9135 73.5615 29.4765 74.7367C30.768 77.4317 33.937 77.9026 36.6072 77.3942C40.3168 76.6879 43.481 74.5579 46.1547 71.9084C46.7662 72.9337 47.4489 73.9301 48.399 74.6597C50.9564 76.623 54.1625 75.3882 56.3231 73.4436C59.0764 70.9657 60.7043 67.631 61.6747 64.0913C62.6743 64.6513 63.7211 65.1491 64.8449 65.3286C67.7849 65.7981 69.9403 63.6543 70.9772 61.1243C72.486 57.4436 72.2354 53.4161 71.214 49.5797C72.511 49.5607 73.8332 49.4628 75.0131 48.8997C77.7194 47.6081 78.1971 44.4488 77.6914 41.7884Z" fill="#A997E3"/>
<path d="M42.0984 17.0066L42.0975 17.0357C42.0952 17.1235 42.0204 17.1727 41.9179 17.1702L40.4522 17.1332C40.3423 17.1305 40.2776 17.0777 40.2801 16.99L40.2808 16.9609C40.2866 16.7491 40.5747 16.6686 40.562 16.332L40.524 15.0228C40.5069 14.2987 40.3749 14.025 40.0453 14.0168C39.7227 14.0086 39.5613 14.2895 39.55 14.7133L39.5067 16.3056C39.4978 16.6417 39.8179 16.7374 39.8119 16.9492L39.8112 16.9783C39.8087 17.066 39.7416 17.1154 39.6315 17.1127L38.0487 17.0729C37.9386 17.0701 37.8742 17.0174 37.8765 16.9296L37.8773 16.9005C37.8829 16.6887 38.2079 16.6092 38.2171 16.2732L38.2561 14.8342C38.2655 14.4837 37.8782 14.43 37.8841 14.2182L37.8847 14.1963C37.8872 14.1086 37.9616 14.0666 38.0656 14.0181L39.1052 13.54C39.2909 13.4498 39.3829 13.5764 39.3789 13.7223L39.3695 14.0656C39.5769 13.72 39.9487 13.532 40.4323 13.5443C41.07 13.5604 41.7345 13.9353 41.7908 15.099L41.8518 16.365C41.8648 16.7016 42.1042 16.7952 42.0985 17.0072L42.0984 17.0066Z" fill="#004538"/>
<path d="M45.5796 16.8337C45.485 17.2249 44.8379 17.8333 43.8966 17.6447C42.8547 17.4359 42.269 16.5655 42.4904 15.4766C42.706 14.4163 43.6765 13.8728 44.6179 14.0613C45.5592 14.25 45.8826 14.8665 45.7907 15.3178C45.747 15.5327 45.6029 15.6528 45.4201 15.7058L43.8271 16.2216C43.9541 16.5528 44.1994 16.7808 44.5515 16.8513C44.8604 16.9132 45.1697 16.8261 45.334 16.6801C45.4551 16.6 45.6187 16.6776 45.5796 16.8337ZM43.7826 15.0421C43.7256 15.3215 43.7093 15.5866 43.7374 15.816L44.4871 15.5487C44.6181 15.493 44.7177 15.3713 44.7481 15.2209C44.7948 14.9917 44.7833 14.4599 44.4169 14.3864C44.1221 14.3274 43.867 14.6265 43.7826 15.0421Z" fill="#004538"/>
<path d="M51.5945 16.6801L51.5831 16.7071C51.505 16.8964 51.1732 16.8554 50.9333 17.1285L49.131 19.1093C49.0401 19.2142 48.9499 19.2406 48.8212 19.1878L48.55 19.0768C48.4213 19.0241 48.3625 18.9367 48.3788 18.8012L48.5697 16.769L47.2607 18.3432C47.1765 18.451 47.0727 18.4717 46.9509 18.4217L46.761 18.344C46.6323 18.2912 46.5937 18.2121 46.5898 18.0683L46.5894 15.3492C46.5933 14.9952 46.4021 14.8061 46.4804 14.6169L46.4917 14.59C46.5253 14.5089 46.6057 14.4866 46.7005 14.5253L48.0627 15.0831C48.1506 15.1193 48.1893 15.1982 48.1558 15.2793L48.1446 15.3062C48.069 15.4887 47.7175 15.4 47.6886 15.815L47.5755 17.3337L48.9319 15.6446C48.9954 15.5679 49.068 15.5264 49.163 15.5653L49.5791 15.7279C49.6739 15.7667 49.7087 15.8363 49.6993 15.9352L49.4515 18.0861L50.3722 17.0484C50.7209 16.6459 50.2988 16.4019 50.3744 16.2194L50.3856 16.1925C50.4193 16.1114 50.5093 16.085 50.5974 16.1212L51.4988 16.4902C51.5867 16.5264 51.6282 16.5987 51.5947 16.6797L51.5945 16.6801Z" fill="#004538"/>
<path d="M51.3193 20.4219L51.336 20.3979C51.4582 20.2242 51.7488 20.3198 51.9425 20.0443L52.7423 18.9064C52.9358 18.6309 52.7547 18.3797 52.8557 18.2359L52.8726 18.2118C52.9188 18.146 52.9939 18.1536 53.1073 18.1704L54.3254 18.3593C54.5523 18.3928 54.587 18.5596 54.507 18.6735L53.0169 20.7937C52.8232 21.0692 53.0429 21.3295 52.9209 21.5032L52.904 21.5272C52.8535 21.5991 52.7639 21.5991 52.6738 21.5364L51.3832 20.6365C51.2931 20.5738 51.2688 20.4938 51.3193 20.4219ZM54.0251 16.7756C54.2653 16.4343 54.7223 16.3692 55.1365 16.658C55.5445 16.9427 55.6397 17.3926 55.3999 17.7341C55.1641 18.0696 54.7027 18.1405 54.2945 17.8559C53.8803 17.5671 53.7895 17.1111 54.0251 16.7756Z" fill="#004538"/>
<path d="M56.1796 24.4483L56.1594 24.4696C56.0989 24.5335 56.0103 24.5206 55.9355 24.4506L54.8688 23.4495C54.7889 23.3745 54.7759 23.292 54.8364 23.2281L54.8566 23.2068C55.0025 23.0525 55.2709 23.1838 55.4864 22.9237L56.3335 21.9207C56.8048 21.3685 56.8897 21.0765 56.6498 20.8512C56.4151 20.631 56.1067 20.7336 55.8149 21.0423L54.7181 22.203C54.4868 22.448 54.6612 22.7321 54.5153 22.8864L54.4951 22.9077C54.4346 22.9716 54.3515 22.9638 54.2714 22.8888L53.1191 21.8076C53.0391 21.7325 53.0263 21.6501 53.0868 21.5862L53.107 21.5649C53.2527 21.4105 53.5479 21.5668 53.7794 21.3218L54.7705 20.2729C55.0119 20.0173 54.7595 19.7201 54.9054 19.5656L54.9205 19.5496C54.981 19.4857 55.0643 19.5039 55.1744 19.5367L56.2683 19.87C56.467 19.9259 56.4509 20.0816 56.3503 20.1879L56.1139 20.4382C56.4993 20.3178 56.902 20.4243 57.2539 20.7547C57.718 21.1902 57.962 21.9115 57.2262 22.8182L56.4251 23.8045C56.2096 24.0646 56.3253 24.2935 56.1796 24.4479L56.1796 24.4483Z" fill="#004538"/>
<path d="M58.425 24.6942C59.341 24.1132 60.465 24.4993 61.027 25.3804C61.6163 26.3047 61.4599 27.4772 60.5501 28.0544C59.6464 28.6276 58.5335 28.2865 57.9596 27.3867C57.3586 26.4439 57.5273 25.2636 58.425 24.6942ZM59.3584 27.2351C59.8411 26.929 60.9242 25.887 60.6137 25.4003C60.425 25.1045 60.086 25.1725 59.5846 25.4906C59.0832 25.8087 58.0272 26.8246 58.3455 27.3238C58.5301 27.6134 58.8941 27.5298 59.3584 27.2353L59.3584 27.2351Z" fill="#004538"/>
<path d="M60.817 32.7843C60.633 32.8578 60.4864 32.6095 60.3124 32.1755C60.1439 31.7551 60.1727 31.5312 60.4519 31.3804C60.109 31.3128 59.8314 31.0539 59.6468 30.5926C59.3725 29.9076 59.6086 29.1366 60.4802 28.7887L61.6173 28.3346C61.9375 28.2068 61.9103 27.903 62.0806 27.835L62.1079 27.8241C62.1828 27.7942 62.2753 27.828 62.3271 27.9175L62.8681 28.8737C62.9741 29.0595 62.9821 29.1978 62.8597 29.2468L60.8359 30.0313C60.2748 30.2474 60.1206 30.4742 60.2403 30.7725C60.3408 31.0234 60.6851 31.1143 61.1006 30.9482L62.449 30.4099C62.769 30.2821 62.742 29.9783 62.9123 29.9103L62.9396 29.8994C63.0145 29.8695 63.107 29.9033 63.1586 29.9928L63.6996 30.949C63.8057 31.1348 63.8056 31.2528 63.6829 31.3018L61.2656 32.267C60.714 32.4872 61.0965 32.6728 60.8174 32.7843L60.817 32.7843Z" fill="#004538"/>
<path d="M64.0865 35.4255C63.7284 35.5036 63.3835 35.4366 63.2932 35.0228C63.1516 34.3733 63.8888 34.5191 63.8112 34.1621C63.7614 33.9337 63.3812 33.9793 63.0659 34.048L61.7333 34.3386C61.4039 34.4105 61.4005 34.8075 61.1997 34.8512L61.171 34.8575C61.0851 34.8762 61.0194 34.8159 60.9974 34.7158L60.6629 33.1813C60.6413 33.0815 60.6756 32.9991 60.7617 32.9803L60.7903 32.9741C60.9907 32.9303 61.1391 33.1972 61.4686 33.1253L62.8942 32.8144C63.231 32.741 63.1849 32.3922 63.3928 32.3469L63.4141 32.3422C63.5 32.3234 63.577 32.3664 63.6576 32.461L64.3497 33.3642C64.4761 33.5311 64.3914 33.6243 64.248 33.6555L63.725 33.7694C64.218 33.8265 64.5417 34.1072 64.6491 34.5998C64.741 35.0208 64.4874 35.3379 64.0861 35.4255L64.0865 35.4255Z" fill="#004538"/>
<path d="M63.2169 41.2192C62.0585 41.2004 61.3402 40.37 61.3564 39.4639C61.3619 39.1569 61.4397 38.917 61.5823 38.722L60.6953 38.7076C60.3581 38.7021 60.2643 39.0294 60.059 39.026L60.0298 39.0256C59.9418 39.0243 59.8917 38.9504 59.8937 38.8481L59.9215 37.2991C59.9235 37.1967 59.9761 37.1246 60.0641 37.126L60.0933 37.1264C60.2988 37.1297 60.3814 37.4234 60.7186 37.4288L63.7245 37.4777C64.0396 37.4828 64.0827 37.1326 64.2952 37.1362L64.332 37.1367C64.4198 37.1381 64.4848 37.2049 64.5415 37.3083L65.0008 38.2805C65.0994 38.5015 64.9954 38.5874 64.8487 38.5851L64.636 38.5816C64.8894 38.7685 65.03 39.1069 65.0224 39.5235C65.0077 40.3491 64.4123 41.2385 63.2172 41.219L63.2169 41.2192ZM62.6315 39.9232C63.4235 39.9361 64.659 39.7442 64.6685 39.2109C64.6733 38.9479 64.4418 38.7685 64.0972 38.7631L62.7701 38.7414C62.1469 38.7312 61.7236 39.0313 61.7179 39.3529C61.7112 39.7255 62.0305 39.9134 62.6315 39.9232Z" fill="#004538"/>
<path d="M63.152 41.642C64.2177 41.8432 64.7703 42.8922 64.5736 43.9187C64.3671 44.9956 63.4477 45.7443 62.3892 45.5444C61.338 45.3459 60.7625 44.3374 60.9634 43.2892C61.174 42.1908 62.1078 41.4448 63.152 41.642ZM62.0849 44.1332C62.6466 44.2393 64.1504 44.2182 64.2592 43.651C64.3252 43.3064 64.0317 43.1247 63.4485 43.0145C62.865 42.9043 61.3989 42.925 61.2871 43.5067C61.2227 43.8441 61.5448 44.0314 62.0849 44.1332Z" fill="#004538"/>
<path d="M62.1938 49.2713C61.8497 49.1457 61.5951 48.9048 61.742 48.5068C61.9726 47.8826 62.5151 48.4001 62.642 48.057C62.7231 47.8374 62.3779 47.6725 62.0753 47.562L60.7959 47.0944C60.4795 46.9788 60.2625 47.3123 60.0701 47.2419L60.0425 47.2318C59.9598 47.2017 59.9371 47.1155 59.9727 47.0194L60.5174 45.5445C60.5528 45.4484 60.6264 45.3974 60.7089 45.4277L60.7365 45.4378C60.9289 45.5082 60.9104 45.8127 61.2268 45.9284L62.5957 46.4286C62.9187 46.5466 63.0679 46.2275 63.2675 46.3004L63.2881 46.308C63.3705 46.3381 63.4124 46.4157 63.4294 46.5386L63.5261 47.6718C63.5428 47.8802 63.4213 47.9136 63.2837 47.8634L62.7818 47.68C63.1663 47.9918 63.2879 48.4021 63.1131 48.8755C62.9636 49.2803 62.5791 49.4122 62.194 49.2715L62.1938 49.2713Z" fill="#004538"/>
<path d="M60.4524 49.1826L61.9874 49.9916L62.118 49.7462C62.1626 49.6622 62.2616 49.6317 62.3459 49.6761L62.4885 49.7511C62.5791 49.799 62.6064 49.8877 62.5583 49.9781L62.493 50.1008C62.2835 50.4949 62.3775 50.9415 62.7279 51.2338C62.8213 51.3079 62.8482 51.413 62.8037 51.497L62.7247 51.6455C62.6698 51.7488 62.567 51.7858 62.4636 51.7311L61.8094 51.3862L61.4554 52.0517C61.4108 52.1357 61.3118 52.1662 61.2275 52.1218L61.0849 52.0466C61.0007 52.0022 60.9703 51.9036 61.0151 51.8196L61.3689 51.1541L59.8145 50.3349C59.5944 50.2188 59.3961 50.2798 59.3103 50.4412C59.1762 50.6932 59.2444 50.8614 59.3231 50.9939C59.3917 51.1457 59.2701 51.2803 59.1471 51.2155C58.6485 50.9527 58.3196 50.3079 58.6942 49.6036C59.0342 48.9641 59.6687 48.7691 60.4524 49.1822L60.4524 49.1826Z" fill="#004538"/>
<path d="M60.0397 54.1662L59.5636 54.8425C59.509 54.9203 59.4068 54.9383 59.3289 54.884L59.1969 54.7918C59.119 54.7372 59.1011 54.6355 59.1557 54.5577L59.615 53.9051L57.8031 52.6403C57.5212 52.4433 57.2216 52.7165 57.0536 52.599L57.0297 52.5822C56.9576 52.532 56.9534 52.4488 57.0126 52.365L57.9393 51.0479C57.9984 50.9641 58.0783 50.9395 58.1503 50.9899L58.1742 51.0067C58.3422 51.1239 58.2457 51.4137 58.5278 51.6106L60.3397 52.8755L60.6136 52.4865C60.6682 52.4087 60.7704 52.3908 60.8483 52.4451L60.9805 52.5373C61.0582 52.5918 61.0763 52.6934 61.0214 52.7714L60.7475 53.1605L61.0475 53.37C61.7134 53.835 61.9921 54.5831 61.3814 55.4512C61.0065 55.9839 60.3534 56.1617 59.9455 55.8771C59.7836 55.764 59.6739 55.5 59.8594 55.2366C60.3565 54.5303 60.9462 55.4597 61.2494 55.0287C61.5613 54.5858 60.4417 54.206 60.0399 54.1665L60.0397 54.1662Z" fill="#004538"/>
<path d="M58.0475 54.0229C58.8361 54.7646 58.7346 55.9462 58.0143 56.7068C57.2588 57.5045 56.0802 57.6429 55.2969 56.9063C54.5188 56.1746 54.5796 55.0148 55.315 54.2384C56.0858 53.4247 57.275 53.2963 58.0477 54.0231L58.0475 54.0229ZM55.8031 55.5523C56.2187 55.9431 57.4961 56.7324 57.8941 56.3123C58.1359 56.057 57.9872 55.7461 57.5556 55.3402C57.1241 54.9342 55.8783 54.1648 55.4701 54.5956C55.2334 54.8455 55.4034 55.1764 55.8031 55.5523Z" fill="#004538"/>
<path d="M53.9537 55.8628L53.9721 55.8856C54.1049 56.0509 53.932 56.292 54.1425 56.5542L56.2352 59.1592C56.4504 59.427 56.7333 59.3229 56.8477 59.4653L56.8661 59.4882C56.9166 59.5509 56.8878 59.6205 56.8453 59.7199L56.3195 60.8322C56.2233 61.0401 56.0423 61.0254 55.9598 60.9228L53.1116 57.3773C52.9009 57.1151 52.5986 57.2537 52.4657 57.0884L52.4473 57.0655C52.3924 56.9971 52.4176 56.9116 52.4977 56.8475L53.7349 55.8596C53.815 55.7956 53.8987 55.7944 53.9537 55.8628Z" fill="#004538"/>
<path d="M52.2524 57.2041L52.2684 57.2285C52.3848 57.4057 52.1874 57.6394 52.3718 57.9205L53.1336 59.0816C53.318 59.3628 53.6196 59.288 53.716 59.4347L53.7321 59.4591C53.7762 59.5263 53.741 59.5929 53.6831 59.6918L53.053 60.7492C52.9372 60.9469 52.7687 60.9172 52.6924 60.8012L51.2728 58.6377C51.0884 58.3566 50.764 58.4635 50.6478 58.2863L50.6318 58.2618C50.5837 58.1886 50.6169 58.1057 50.7092 58.0456L52.0289 57.1841C52.1212 57.124 52.2045 57.1308 52.2526 57.2041L52.2524 57.2041ZM54.6406 61.0573C54.8692 61.4057 54.759 61.8527 54.3355 62.1291C53.9181 62.4017 53.4632 62.3232 53.2347 61.9748C53.0102 61.6325 53.1162 61.1792 53.5336 60.9069C53.9571 60.6304 54.4161 60.715 54.6406 61.0573Z" fill="#004538"/>
<path d="M51.2427 59.854C51.7027 60.8326 51.1734 61.8953 50.2241 62.34C49.228 62.8063 48.0813 62.5043 47.6242 61.5323C47.1704 60.5669 47.6536 59.5095 48.6228 59.0557C49.6389 58.5799 50.7916 58.8953 51.2425 59.854L51.2427 59.854ZM48.5934 60.4571C48.8359 60.9729 49.7329 62.1745 50.2575 61.9289C50.5763 61.7796 50.5524 61.4358 50.3006 60.9002C50.0488 60.3647 49.1736 59.193 48.6359 59.4449C48.3238 59.591 48.3602 59.9613 48.5934 60.4571Z" fill="#004538"/>
<path d="M45.7577 62.673L45.816 62.9443C45.8405 63.0586 45.7969 63.1352 45.6967 63.1567L43.3807 63.6536C43.2803 63.6751 43.2021 63.6246 43.1776 63.5104L43.1193 63.239C43.0947 63.1247 43.1456 63.0465 43.2461 63.025L45.5619 62.5282C45.6623 62.5067 45.7333 62.5587 45.7579 62.673L45.7577 62.673Z" fill="#004538"/>
<path d="M36.7231 61.3116L36.7237 61.2823C36.7255 61.1946 36.7997 61.1448 36.9022 61.1465L38.3685 61.1715C38.4785 61.1735 38.5435 61.2257 38.5419 61.3134L38.5413 61.3427C38.5372 61.5545 38.2497 61.6373 38.2654 61.9738L38.3142 63.283C38.3371 64.0071 38.4713 64.2798 38.8013 64.2855C39.1239 64.2909 39.2832 64.0086 39.2911 63.5848L39.3212 61.9919C39.3275 61.6559 39.0067 61.5627 39.0106 61.3507L39.011 61.3214C39.0127 61.2337 39.0799 61.1836 39.1897 61.1856L40.7732 61.2126C40.8834 61.2145 40.9484 61.2667 40.9466 61.3544L40.946 61.3837C40.9419 61.5955 40.6177 61.6778 40.6115 62.0138L40.5844 63.4533C40.5777 63.804 40.9654 63.8547 40.9615 64.0664L40.9611 64.0883C40.9594 64.176 40.8852 64.2186 40.7818 64.2679L39.746 64.7546C39.5609 64.8464 39.4678 64.7206 39.4706 64.5744L39.4771 64.231C39.2726 64.5783 38.9022 64.7694 38.4184 64.761C37.7807 64.7501 37.1128 64.3806 37.0467 63.2173L36.9753 61.9515C36.9596 61.615 36.7192 61.5232 36.7233 61.3112L36.7231 61.3116Z" fill="#004538"/>
<path d="M33.2522 61.5161C33.3432 61.1241 33.9849 60.5103 34.9279 60.6906C35.9716 60.8903 36.565 61.7556 36.353 62.8462C36.1468 63.9083 35.181 64.4602 34.2381 64.2799C33.2953 64.0993 32.9666 63.4859 33.0544 63.0338C33.0963 62.8184 33.2392 62.6969 33.4214 62.6426L35.01 62.1129C34.88 61.7829 34.6328 61.5571 34.28 61.4895C33.9706 61.4303 33.6621 61.52 33.4989 61.6675C33.3788 61.7486 33.2143 61.6726 33.2522 61.5161ZM35.0647 63.2918C35.1191 63.0121 35.1332 62.7467 35.103 62.5178L34.3555 62.7915C34.225 62.8483 34.1264 62.9708 34.0974 63.1217C34.0527 63.3512 34.0688 63.8829 34.4359 63.953C34.731 64.0095 34.9838 63.708 35.0647 63.2918Z" fill="#004538"/>
<path d="M27.2385 61.7223L27.2496 61.6952C27.3261 61.5053 27.6582 61.5434 27.8956 61.2681L29.6801 59.2717C29.7703 59.1658 29.8601 59.1389 29.9894 59.1904L30.2615 59.2991C30.3906 59.3506 30.4505 59.4374 30.4351 59.5732L30.2622 61.6067L31.5573 60.0212C31.6406 59.9127 31.7441 59.8911 31.8666 59.9399L32.057 60.0159C32.1861 60.0675 32.2254 60.1462 32.2308 60.29L32.2551 63.0087C32.2545 63.3627 32.4471 63.5501 32.3708 63.74L32.3597 63.7671C32.3269 63.8486 32.2464 63.8715 32.1514 63.8336L30.7844 63.2877C30.696 63.2523 30.6568 63.1738 30.6894 63.0923L30.7005 63.0652C30.7745 62.8819 31.1268 62.9677 31.1522 62.5525L31.252 61.033L29.9104 62.7338C29.8477 62.8112 29.7753 62.8532 29.6801 62.8151L29.2624 62.6562C29.1674 62.6181 29.1321 62.549 29.1405 62.4499L29.3693 60.297L28.4577 61.3427C28.1126 61.7481 28.5368 61.9884 28.4628 62.1717L28.4518 62.1988C28.4191 62.2803 28.3291 62.3073 28.2407 62.2721L27.3362 61.9109C27.2479 61.8755 27.2059 61.8036 27.2387 61.7223L27.2385 61.7223Z" fill="#004538"/>
<path d="M24.8052 61.6474C24.5684 61.9909 24.1119 62.0599 23.6953 61.7748C23.2846 61.4939 23.1856 61.0447 23.4226 60.7012C23.6555 60.3638 24.1159 60.2888 24.5265 60.5697C24.9432 60.8548 25.0379 61.31 24.8052 61.6474ZM27.4784 57.978L27.4619 58.0023C27.3414 58.1769 27.0499 58.0839 26.8587 58.3612L26.0691 59.5059C25.8779 59.7831 26.0614 60.0326 25.9615 60.1772L25.9448 60.2014C25.8992 60.2677 25.824 60.2606 25.7105 60.245L24.4911 60.0668C24.2639 60.0356 24.2275 59.8689 24.3067 59.7544L25.7778 57.6215C25.969 57.3444 25.7471 57.0861 25.8676 56.9113L25.8843 56.8871C25.9342 56.8148 26.0236 56.814 26.1142 56.8759L27.4125 57.7643C27.5031 57.8262 27.5283 57.9056 27.4784 57.9779L27.4784 57.978Z" fill="#004538"/>
<path d="M22.5839 53.9935L22.604 53.972C22.6639 53.9075 22.7524 53.9196 22.8276 53.989L23.9028 54.9805C23.9834 55.0549 23.997 55.137 23.9373 55.2015L23.9173 55.223C23.7727 55.3787 23.5034 55.2495 23.2903 55.5114L22.4519 56.5214C21.9854 57.0775 21.9032 57.3702 22.1451 57.5933C22.3816 57.8113 22.6887 57.7062 22.9778 57.395L24.0642 56.2251C24.2934 55.9783 24.1167 55.6958 24.2612 55.5401L24.2812 55.5186C24.3411 55.4541 24.4242 55.4613 24.5049 55.5356L25.6662 56.6064C25.7468 56.6809 25.7604 56.7629 25.7007 56.8274L25.6807 56.8489C25.5361 57.0044 25.2398 56.8509 25.0106 57.0976L24.0289 58.1548C23.7897 58.4123 24.0446 58.7073 23.9003 58.8631L23.8853 58.8791C23.8254 58.9435 23.742 58.9262 23.6316 58.8943L22.5352 58.5706C22.3359 58.5164 22.3508 58.3607 22.4504 58.2535L22.6845 58.0012C22.3001 58.1249 21.8966 58.0219 21.5419 57.6947C21.0741 57.2633 20.8238 56.5443 21.5516 55.6315L22.3439 54.6386C22.557 54.3768 22.4392 54.1488 22.5839 53.9933L22.5839 53.9935Z" fill="#004538"/>
<path d="M20.3359 53.766C19.4245 54.355 18.2972 53.9785 17.7274 53.1021C17.1298 52.1826 17.2762 51.0086 18.1813 50.4236C19.0801 49.8426 20.1962 50.1743 20.7777 51.0692C21.3872 52.007 21.2284 53.1888 20.3359 53.766ZM19.3803 51.2327C18.9001 51.5432 17.8258 52.5945 18.1405 53.0786C18.3317 53.3729 18.6702 53.302 19.1688 52.9796C19.6675 52.6572 20.7151 51.6321 20.3924 51.1356C20.2053 50.8474 19.8419 50.9344 19.3803 51.2329L19.3803 51.2327Z" fill="#004538"/>
<path d="M17.8742 45.695C18.0574 45.62 18.2062 45.8669 18.3837 46.2995C18.5557 46.7186 18.5289 46.9427 18.2508 47.0956C18.5944 47.1603 18.8741 47.417 19.0625 47.8766C19.3429 48.5592 19.1132 49.3319 18.2446 49.6871L17.1113 50.1506C16.7923 50.2811 16.8218 50.5847 16.6523 50.654L16.625 50.6652C16.5503 50.6957 16.4576 50.6626 16.4052 50.5736L15.8562 49.6221C15.7484 49.4372 15.7393 49.2989 15.8613 49.2489L17.8783 48.4476C18.4375 48.2269 18.5896 47.9989 18.4676 47.7015C18.3649 47.4514 18.0198 47.3637 17.6059 47.5331L16.2624 48.0827C15.9434 48.2132 15.9729 48.5168 15.8032 48.5862L15.7761 48.5973C15.7014 48.6278 15.6087 48.5948 15.5561 48.5057L15.007 47.5542C14.8995 47.3692 14.8985 47.2512 15.0208 47.2013L17.4295 46.216C17.9794 45.9912 17.5955 45.8089 17.8736 45.695L17.8742 45.695Z" fill="#004538"/>
<path d="M14.5805 43.0853C14.9382 43.004 15.2837 43.0679 15.3775 43.4811C15.5246 44.1296 14.786 43.9901 14.8669 44.3465C14.9187 44.5745 15.2987 44.5256 15.6134 44.4541L16.9437 44.1519C17.2727 44.077 17.2726 43.68 17.4728 43.6345L17.5015 43.6281C17.5874 43.6085 17.6535 43.6685 17.6763 43.7681L18.0243 45.3001C18.0468 45.3997 18.013 45.4824 17.9273 45.5019L17.8987 45.5084C17.6984 45.5539 17.5477 45.2884 17.2186 45.3632L15.7955 45.6866C15.4593 45.7629 15.5084 46.1115 15.3009 46.1586L15.2795 46.1635C15.1936 46.183 15.1164 46.1406 15.0348 46.0466L14.3347 45.1493C14.207 44.9836 14.2907 44.8894 14.4338 44.857L14.9559 44.7384C14.4625 44.6856 14.1362 44.4076 14.0245 43.916C13.9291 43.4956 14.1798 43.1763 14.5803 43.0855L14.5805 43.0853Z" fill="#004538"/>
<path d="M15.352 37.305C16.5105 37.2863 17.2556 38.0926 17.269 38.9987C17.2734 39.3057 17.2038 39.5479 17.0674 39.7476L17.9545 39.7332C18.2919 39.7277 18.375 39.3975 18.58 39.3942L18.6094 39.3938C18.6973 39.3924 18.7499 39.4645 18.7513 39.5669L18.7742 41.1158C18.7758 41.2182 18.7255 41.2921 18.6375 41.2934L18.6082 41.2938C18.403 41.2972 18.3106 41.0064 17.9734 41.0119L14.9675 41.0607C14.6522 41.0658 14.6205 41.4171 14.408 41.4206L14.3711 41.4212C14.2833 41.4226 14.2161 41.3579 14.1559 41.2565L13.6653 40.2998C13.5594 40.0821 13.6607 39.9928 13.8073 39.9905L14.02 39.987C13.7608 39.8084 13.609 39.4747 13.603 39.0583C13.5909 38.2327 14.157 37.3244 15.352 37.305ZM15.9796 38.581C15.1876 38.5939 13.959 38.8258 13.9668 39.3592C13.9706 39.6222 14.2078 39.7939 14.5524 39.7883L15.8796 39.7668C16.5028 39.7566 16.9162 39.443 16.9114 39.1214C16.9062 38.7488 16.5809 38.5712 15.9796 38.581Z" fill="#004538"/>
<path d="M15.4616 36.8642C14.3941 36.6728 13.832 35.6289 14.0192 34.6006C14.2158 33.5219 15.1285 32.7648 16.1887 32.9551C17.2417 33.144 17.8262 34.1473 17.6349 35.1973C17.4343 36.2974 16.5073 37.052 15.4616 36.8642ZM16.5057 34.3634C15.9431 34.2626 14.4396 34.2972 14.3361 34.8653C14.2734 35.2106 14.5683 35.3897 15.1526 35.4944C15.7368 35.5992 17.203 35.5652 17.309 34.9827C17.3707 34.6447 17.0466 34.4605 16.5057 34.3634Z" fill="#004538"/>
<path d="M16.3536 29.221C16.6988 29.3437 16.9554 29.5825 16.812 29.9817C16.5869 30.608 16.0394 30.0952 15.9158 30.4394C15.8368 30.6596 16.1833 30.8218 16.487 30.9296L17.771 31.386C18.0884 31.499 18.3025 31.1635 18.4956 31.2323L18.5233 31.242C18.6061 31.2715 18.6297 31.3575 18.5951 31.4538L18.0633 32.9338C18.0286 33.0301 17.9556 33.0819 17.8728 33.0524L17.8451 33.0426C17.652 32.9739 17.6679 32.6691 17.3506 32.5561L15.9768 32.0679C15.6523 31.9526 15.5061 32.2732 15.3059 32.2021L15.2851 32.1947C15.2023 32.1652 15.16 32.088 15.142 31.9651L15.0351 30.8325C15.0164 30.6241 15.1378 30.5897 15.2762 30.6387L15.7799 30.8179C15.3924 30.5094 15.2672 30.1001 15.4378 29.6251C15.5837 29.2189 15.967 29.0835 16.3538 29.2209L16.3536 29.221Z" fill="#004538"/>
<path d="M18.0955 29.2969L16.5534 28.5014L16.4252 28.7479C16.3811 28.8323 16.2823 28.8636 16.1979 28.82L16.0547 28.7462C15.9636 28.6993 15.9355 28.6106 15.9829 28.5197L16.047 28.3964C16.2531 28.0006 16.1551 27.5548 15.8021 27.2656C15.7081 27.1923 15.6803 27.0874 15.7241 27.003L15.802 26.8537C15.8559 26.75 15.9583 26.7121 16.0623 26.7658L16.7194 27.1048L17.0675 26.4364C17.1116 26.352 17.2104 26.3208 17.2948 26.3643L17.4378 26.4382C17.5226 26.4817 17.5538 26.5804 17.5098 26.6646L17.1617 27.3332L18.7234 28.1389C18.9445 28.253 19.1422 28.1903 19.2266 28.0282C19.3583 27.7751 19.2888 27.6075 19.2089 27.4756C19.1391 27.3244 19.2591 27.1886 19.3829 27.2525C19.884 27.511 20.2183 28.1528 19.85 28.8603C19.5154 29.5029 18.8827 29.7033 18.0955 29.2971L18.0955 29.2969Z" fill="#004538"/>
<path d="M18.4636 24.3097L18.9334 23.6288C18.9874 23.5504 19.0896 23.5315 19.1679 23.5852L19.3009 23.6763C19.3792 23.73 19.3981 23.8316 19.3442 23.9099L18.8909 24.5666L20.7143 25.8153C20.998 26.0097 21.2953 25.7338 21.4643 25.8496L21.4883 25.8663C21.5608 25.9159 21.5658 25.9991 21.5076 26.0833L20.5926 27.4088C20.5343 27.4932 20.4547 27.5184 20.3822 27.4687L20.3581 27.4521C20.1891 27.3363 20.2829 27.0457 19.9992 26.8513L18.1756 25.6025L17.9052 25.9942C17.8513 26.0726 17.7492 26.0915 17.6709 26.0376L17.5379 25.9466C17.4594 25.8928 17.4405 25.7912 17.4946 25.7129L17.765 25.3213L17.463 25.1146C16.7927 24.6557 16.507 23.9099 17.1103 23.0364C17.4803 22.5003 18.1318 22.3164 18.5427 22.5976C18.7056 22.7091 18.8175 22.9721 18.6347 23.2373C18.1438 23.9482 17.5457 23.0239 17.2462 23.4578C16.9387 23.9037 18.0617 24.2735 18.4639 24.3093L18.4636 24.3097Z" fill="#004538"/>
<path d="M20.4565 24.4387C19.6616 23.7041 19.753 22.5221 20.4664 21.7554C21.2149 20.9515 22.3919 20.803 23.1813 21.5327C23.9654 22.2574 23.9149 23.4173 23.1865 24.1998C22.423 25.02 21.2351 25.1583 20.4565 24.4387ZM22.6868 22.8904C22.2678 22.5031 20.984 21.7253 20.5899 22.1487C20.3503 22.406 20.5019 22.7155 20.9366 23.1176C21.3717 23.5197 22.6237 24.2781 23.0279 23.844C23.2624 23.592 23.0896 23.2628 22.6868 22.8904Z" fill="#004538"/>
<path d="M24.5338 22.5634L24.5153 22.5408C24.3808 22.3767 24.552 22.1342 24.3391 21.874L22.2245 19.2881C22.0069 19.0222 21.7251 19.1289 21.6092 18.9875L21.5906 18.9648C21.5398 18.9025 21.5679 18.8327 21.6095 18.7331L22.1255 17.6165C22.2198 17.4078 22.4009 17.4209 22.4842 17.5227L25.3623 21.0422C25.5751 21.3025 25.8761 21.1614 26.0103 21.3255L26.0289 21.3482C26.0844 21.416 26.06 21.502 25.9805 21.5666L24.7524 22.5648C24.6729 22.6295 24.5892 22.6314 24.5338 22.5636L24.5338 22.5634Z" fill="#004538"/>
<path d="M23.8008 17.3756C23.5691 17.0294 23.6753 16.5812 24.0963 16.3011C24.5114 16.025 24.9668 16.0994 25.1985 16.4456C25.426 16.7858 25.3241 17.24 24.9092 17.5161C24.488 17.7963 24.0285 17.7158 23.8008 17.3754L23.8008 17.3756ZM26.223 21.2076L26.2067 21.1833C26.0888 21.0071 26.2843 20.7719 26.0973 20.4923L25.3253 19.338C25.1383 19.0586 24.8373 19.136 24.7399 18.99L24.7237 18.9658C24.6789 18.899 24.7135 18.832 24.7703 18.7327L25.3912 17.6701C25.5052 17.4714 25.6739 17.4995 25.7512 17.615L27.1897 19.7659C27.3766 20.0453 27.7001 19.9355 27.818 20.1117L27.8342 20.1359C27.8829 20.2088 27.8504 20.292 27.7588 20.353L26.4466 21.2259C26.355 21.2869 26.2717 21.2808 26.2228 21.208L26.223 21.2076Z" fill="#004538"/>
<path d="M27.2122 18.547C26.7437 17.5723 27.2636 16.5051 28.2092 16.0524C29.2012 15.5774 30.3505 15.8697 30.8158 16.8378C31.278 17.7993 30.804 18.8608 29.8386 19.323C28.8268 19.8074 27.6711 19.502 27.2122 18.547ZM29.856 17.9212C29.609 17.4075 28.7018 16.2136 28.1793 16.4639C27.8619 16.6159 27.8886 16.9594 28.1451 17.4929C28.4016 18.0263 29.2867 19.1904 29.8221 18.934C30.1331 18.7852 30.0935 18.4151 29.856 17.9212Z" fill="#004538"/>
<path d="M32.6668 15.6824L32.6063 15.4116C32.5806 15.2975 32.6236 15.2205 32.7238 15.198L35.0348 14.681C35.135 14.6586 35.2137 14.7084 35.2392 14.8225L35.2999 15.0933C35.3254 15.2074 35.2753 15.2859 35.1751 15.3084L32.8641 15.8256C32.7639 15.848 32.6925 15.7965 32.6668 15.6824Z" fill="#004538"/>
<path d="M31.6949 40.6082C31.7733 40.6082 31.834 40.6332 31.8767 40.6829C31.9195 40.7327 31.9335 40.7968 31.9193 40.8747L31.5631 42.6661C31.5271 42.8439 31.4377 42.9328 31.2952 42.9328L25.967 42.9328C25.8884 42.9328 25.8188 42.9063 25.7585 42.8529C25.6978 42.7996 25.6677 42.7374 25.6679 42.6663L25.6681 42.5063C25.6688 42.0798 25.7926 41.6603 26.0394 41.2481C26.2861 40.8358 26.5845 40.4642 26.9347 40.1337C27.2846 39.8031 27.6329 39.4797 27.9795 39.1632C28.326 38.8469 28.6224 38.5163 28.8692 38.1715C29.1157 37.8268 29.2394 37.4943 29.2399 37.1745C29.2405 36.8404 29.1784 36.5739 29.0541 36.3748C28.9293 36.1759 28.7744 36.0762 28.5892 36.0762C28.4463 36.0762 28.3249 36.1864 28.2248 36.4068C28.1244 36.6272 28.0403 36.8671 27.9723 37.1266C27.9038 37.3863 27.7681 37.6262 27.5645 37.8464C27.3608 38.0668 27.0948 38.1769 26.7669 38.1769C26.4675 38.1769 26.2177 38.0881 26.0184 37.9103C25.819 37.7327 25.7196 37.4875 25.7201 37.1745C25.721 36.62 26.009 36.1614 26.5838 35.7988C27.1586 35.4362 27.8489 35.2549 28.6552 35.2549C29.5823 35.2549 30.3114 35.4254 30.8423 35.7668C31.373 36.1081 31.6379 36.6483 31.6367 37.3876C31.6361 37.7858 31.5231 38.15 31.2977 38.4806C31.0725 38.8111 30.7866 39.0956 30.4404 39.3336C30.094 39.5717 29.7423 39.7939 29.3854 40C29.0285 40.2063 28.6945 40.4302 28.3839 40.6717C28.0732 40.9134 27.8605 41.1588 27.746 41.4075L30.2819 41.4075C30.4815 41.4075 30.6544 41.3667 30.8008 41.2848C30.9472 41.2031 31.0507 41.1107 31.1116 41.0076C31.1724 40.9046 31.2403 40.8122 31.3154 40.7303C31.3904 40.6487 31.4636 40.6076 31.5349 40.6076L31.6953 40.6076L31.6949 40.6082Z" fill="#004534"/>
<path d="M36.0454 43.0401C35.0466 43.0401 34.2038 42.6882 33.5167 41.9845C32.8294 41.2807 32.4869 40.3529 32.4888 39.2013C32.4908 38.0214 32.8168 37.0686 33.4673 36.3435C34.1175 35.6185 34.9811 35.2559 36.0583 35.2559C37.071 35.2559 37.921 35.6222 38.6083 36.3543C39.2954 37.0865 39.638 38.0357 39.6361 39.2015C39.6342 40.3462 39.2813 41.2721 38.5776 41.9794C37.8738 42.6868 37.0297 43.0405 36.0456 43.0405L36.0454 43.0401ZM36.3676 42.251C36.9169 42.251 37.1927 41.565 37.195 40.1929C37.196 39.5743 37.1451 38.9612 37.0428 38.3534C36.9405 37.7456 36.7753 37.2161 36.5479 36.7646C36.3204 36.3132 36.0569 36.0874 35.7574 36.0874C35.201 36.0874 34.9214 36.855 34.9188 38.3907C34.9172 39.3717 35.0496 40.2605 35.3157 41.0566C35.5818 41.8528 35.9324 42.251 36.3676 42.251Z" fill="#004534"/>
<path d="M46.2564 40.6082C46.3348 40.6082 46.3956 40.6332 46.4382 40.6829C46.4811 40.7327 46.4951 40.7968 46.4808 40.8747L46.1246 42.6661C46.0886 42.8439 45.9993 42.9328 45.8567 42.9328L40.5285 42.9328C40.4499 42.9328 40.3803 42.9063 40.32 42.8529C40.2594 42.7996 40.2293 42.7374 40.2294 42.6663L40.2297 42.5063C40.2304 42.0798 40.3542 41.6603 40.6009 41.2481C40.8476 40.8358 41.146 40.4642 41.4963 40.1337C41.8461 39.8031 42.1945 39.4797 42.541 39.1632C42.8875 38.8469 43.1839 38.5163 43.4307 38.1715C43.6773 37.8268 43.8009 37.4943 43.8015 37.1745C43.802 36.8404 43.7399 36.5739 43.6156 36.3748C43.4908 36.1759 43.3359 36.0762 43.1507 36.0762C43.0078 36.0762 42.8864 36.1864 42.7863 36.4068C42.686 36.6272 42.6018 36.8671 42.5338 37.1266C42.4653 37.3863 42.3297 37.6262 42.126 37.8464C41.9224 38.0668 41.6563 38.1769 41.3284 38.1769C41.029 38.1769 40.7792 38.0881 40.58 37.9103C40.3805 37.7327 40.2811 37.4875 40.2816 37.1745C40.2826 36.62 40.5705 36.1614 41.1453 35.7988C41.7201 35.4362 42.4104 35.2549 43.2167 35.2549C44.1438 35.2549 44.873 35.4254 45.4039 35.7668C45.9345 36.1081 46.1995 36.6483 46.1982 37.3876C46.1976 37.7858 46.0846 38.15 45.8592 38.4806C45.634 38.8111 45.3481 39.0956 45.0019 39.3336C44.6555 39.5717 44.3039 39.7939 43.9469 40C43.59 40.2063 43.256 40.4302 42.9454 40.6717C42.6347 40.9134 42.422 41.1588 42.3075 41.4075L44.8434 41.4075C45.043 41.4075 45.216 41.3667 45.3623 41.2848C45.5087 41.2031 45.6122 41.1107 45.6731 41.0076C45.7339 40.9046 45.8019 40.8122 45.8769 40.7303C45.9519 40.6487 46.0251 40.6076 46.0964 40.6076L46.2568 40.6076L46.2564 40.6082Z" fill="#004534"/>
<path d="M50.7322 38.3258C51.431 38.3614 51.9782 38.587 52.3735 39.003C52.7688 39.4189 52.9657 39.9539 52.9646 40.6078C52.9635 41.269 52.6807 41.8395 52.1165 42.3193C51.5521 42.7992 50.8383 43.0391 49.9753 43.0391C48.9981 43.0391 48.253 42.881 47.7401 42.5645C47.2271 42.2484 46.9709 41.859 46.9717 41.3969C46.9722 41.0701 47.0563 40.8104 47.2243 40.6185C47.392 40.4267 47.6223 40.3306 47.915 40.3306C48.1432 40.3306 48.3411 40.3944 48.5085 40.5224C48.6757 40.6504 48.8073 40.8069 48.9035 40.9915C48.9994 41.1765 49.0901 41.3631 49.1756 41.5513C49.261 41.7396 49.3623 41.8979 49.4797 42.0258C49.5973 42.1538 49.7309 42.2177 49.8807 42.2177C50.0947 42.2177 50.2696 42.0809 50.4057 41.8072C50.5414 41.5337 50.61 41.2012 50.6107 40.8102C50.6113 40.4263 50.5438 40.119 50.4089 39.8878C50.2738 39.6569 50.0705 39.5412 49.7996 39.5412L49.5644 39.5412C49.3787 39.5412 49.2505 39.4596 49.1796 39.296C49.1085 39.1327 49.1337 38.9655 49.2553 38.7949L50.4135 37.2379L47.621 37.2379C47.4996 37.2379 47.4017 37.2006 47.3269 37.126C47.2522 37.0513 47.2149 36.9572 47.2151 36.8435L47.2169 35.7345C47.2173 35.4858 47.3495 35.3613 47.6135 35.3613L52.3535 35.3613C52.446 35.3613 52.5193 35.3863 52.5725 35.436C52.6259 35.4858 52.6525 35.5499 52.6524 35.6278L52.6521 35.8091C52.6518 35.9443 52.5482 36.1362 52.341 36.3849L50.7326 38.3256L50.7322 38.3258Z" fill="#004534"/>
</svg>
